<?xml version="1.0" encoding="UTF-8" standalone="no"?>
<!-- Created with Inkscape (http://www.inkscape.org/) -->

<svg
   xmlns:dc="http://purl.org/dc/elements/1.1/"
   xmlns:cc="http://creativecommons.org/ns#"
   xmlns:rdf="http://www.w3.org/1999/02/22-rdf-syntax-ns#"
   xmlns:svg="http://www.w3.org/2000/svg"
   xmlns="http://www.w3.org/2000/svg"
   xmlns:sodipodi="http://sodipodi.sourceforge.net/DTD/sodipodi-0.dtd"
   xmlns:inkscape="http://www.inkscape.org/namespaces/inkscape"
   width="1800"
   height="1080"
   id="svg5942"
   version="1.1"
   inkscape:version="0.48.4 r9939"
   sodipodi:docname="Bowliing Green Back.svg">
  <defs
     id="defs5944" />
  <sodipodi:namedview
     id="base"
     pagecolor="#ffffff"
     bordercolor="#666666"
     borderopacity="1.0"
     inkscape:pageopacity="0.0"
     inkscape:pageshadow="2"
     inkscape:zoom="0.7"
     inkscape:cx="92.949434"
     inkscape:cy="853.04421"
     inkscape:document-units="px"
     inkscape:current-layer="layer1"
     showgrid="false"
     units="in"
     inkscape:showpageshadow="false"
     inkscape:window-width="1366"
     inkscape:window-height="706"
     inkscape:window-x="-8"
     inkscape:window-y="-8"
     inkscape:window-maximized="1" />
  <metadata
     id="metadata5947">
    <rdf:RDF>
      <cc:Work
         rdf:about="">
        <dc:format>image/svg+xml</dc:format>
        <dc:type
           rdf:resource="http://purl.org/dc/dcmitype/StillImage" />
        <dc:title></dc:title>
      </cc:Work>
    </rdf:RDF>
  </metadata>
  <g
     inkscape:label="Layer 1"
     inkscape:groupmode="layer"
     id="layer1"
     transform="translate(0,27.64025)">
    <flowRoot
       xml:space="preserve"
       id="flowRoot6799"
       style="fill:black;stroke:none;stroke-opacity:1;stroke-width:1px;stroke-linejoin:miter;stroke-linecap:butt;fill-opacity:1;font-family:Sans;font-style:normal;font-weight:normal;font-size:13px;line-height:125%;letter-spacing:0px;word-spacing:0px"><flowRegion
         id="flowRegion6801"><rect
           id="rect6803"
           width="229.30463"
           height="203.04066"
           x="357.59399"
           y="138.53783" /></flowRegion><flowPara
         id="flowPara6805" /></flowRoot>    <g
       id="g4113"
       transform="translate(352.73651,86.00667)">
      <g
         id="g3326">
        <g
           id="g7260">
          <rect
             style="fill:none;stroke:#00c83a;stroke-width:0.15065154;stroke-miterlimit:10;stroke-opacity:1;stroke-dasharray:none"
             id="rect3961-3"
             width="122.09344"
             height="161.06982"
             x="75.523689"
             y="-214.82063"
             transform="matrix(0,1,-1,0,0,0)" />
          <path
             transform="matrix(-0.13104072,0,0,-0.12395486,287.73107,57.72038)"
             d="M 822.26415,230.46172 C 822.26415,251.10371 806.43503,267.83736 786.90881,267.83736 767.3826,267.83736 751.55347,251.10371 751.55347,230.46172 751.55347,209.81972 767.3826,193.08607 786.90881,193.08607 806.43503,193.08607 822.26415,209.81972 822.26415,230.46172 z"
             sodipodi:ry="37.375645"
             sodipodi:rx="35.355339"
             sodipodi:cy="230.46172"
             sodipodi:cx="786.90881"
             id="path5080-5"
             style="fill:none;stroke:#e386dd;stroke-width:0.7846303;stroke-miterlimit:10;stroke-opacity:1;stroke-dasharray:none"
             sodipodi:type="arc" />
          <path
             transform="matrix(-0.13104072,0,0,-0.12395486,188.89523,57.72038)"
             d="M 822.26415,230.46172 C 822.26415,251.10371 806.43503,267.83736 786.90881,267.83736 767.3826,267.83736 751.55347,251.10371 751.55347,230.46172 751.55347,209.81972 767.3826,193.08607 786.90881,193.08607 806.43503,193.08607 822.26415,209.81972 822.26415,230.46172 z"
             sodipodi:ry="37.375645"
             sodipodi:rx="35.355339"
             sodipodi:cy="230.46172"
             sodipodi:cx="786.90881"
             id="path5084-0"
             style="fill:none;stroke:#e386dd;stroke-width:0.7846303;stroke-miterlimit:10;stroke-opacity:1;stroke-dasharray:none"
             sodipodi:type="arc" />
          <path
             sodipodi:type="arc"
             style="fill:none;stroke:#e386dd;stroke-width:0.7846303;stroke-miterlimit:10;stroke-opacity:1;stroke-dasharray:none"
             id="path5086-1"
             sodipodi:cx="786.90881"
             sodipodi:cy="230.46172"
             sodipodi:rx="35.355339"
             sodipodi:ry="37.375645"
             d="M 822.26415,230.46172 C 822.26415,251.10371 806.43503,267.83736 786.90881,267.83736 767.3826,267.83736 751.55347,251.10371 751.55347,230.46172 751.55347,209.81972 767.3826,193.08607 786.90881,193.08607 806.43503,193.08607 822.26415,209.81972 822.26415,230.46172 z"
             transform="matrix(-0.13104072,0,0,-0.12395486,337.149,57.72038)" />
          <path
             transform="matrix(-0.13104072,0,0,-0.12395486,139.47734,57.72038)"
             d="M 822.26415,230.46172 C 822.26415,251.10371 806.43503,267.83736 786.90881,267.83736 767.3826,267.83736 751.55347,251.10371 751.55347,230.46172 751.55347,209.81972 767.3826,193.08607 786.90881,193.08607 806.43503,193.08607 822.26415,209.81972 822.26415,230.46172 z"
             sodipodi:ry="37.375645"
             sodipodi:rx="35.355339"
             sodipodi:cy="230.46172"
             sodipodi:cx="786.90881"
             id="path5092-4"
             style="fill:none;stroke:#e386dd;stroke-width:0.7846303;stroke-miterlimit:10;stroke-opacity:1;stroke-dasharray:none"
             sodipodi:type="arc" />
          <path
             sodipodi:type="arc"
             style="fill:none;stroke:#e386dd;stroke-width:0.7846303;stroke-miterlimit:10;stroke-opacity:1;stroke-dasharray:none"
             id="path5094-5"
             sodipodi:cx="786.90881"
             sodipodi:cy="230.46172"
             sodipodi:rx="35.355339"
             sodipodi:ry="37.375645"
             d="M 822.26415,230.46172 C 822.26415,251.10371 806.43503,267.83736 786.90881,267.83736 767.3826,267.83736 751.55347,251.10371 751.55347,230.46172 751.55347,209.81972 767.3826,193.08607 786.90881,193.08607 806.43503,193.08607 822.26415,209.81972 822.26415,230.46172 z"
             transform="matrix(-0.13104072,0,0,-0.12395486,238.31315,57.72038)" />
          <rect
             y="212.34009"
             x="89.252892"
             height="185.72945"
             width="90.060158"
             id="rect3942-6"
             style="fill:none;stroke:#f8f603;stroke-width:0.29417574;stroke-miterlimit:10;stroke-opacity:1;stroke-dasharray:none" />
          <rect
             transform="scale(-1,-1)"
             y="-402.67474"
             x="-249.1981"
             height="389.20139"
             width="229.83028"
             id="rect3959-5"
             style="fill:none;stroke:#c31234;stroke-width:0.48467612;stroke-miterlimit:10;stroke-opacity:1;stroke-dasharray:none"
             ry="21.447023" />
          <g
             id="g5615"
             transform="matrix(-1,0,0,-1,454.18332,614.00694)">
            <rect
               y="-374.83679"
               x="336.08688"
               height="6.9254642"
               width="15.783731"
               id="rect5359-2"
               style="fill:none;stroke:#f84803;stroke-width:0.16115002;stroke-miterlimit:10;stroke-opacity:1;stroke-dasharray:none"
               transform="matrix(0,1,-1,0,0,0)" />
            <rect
               style="fill:none;stroke:#f84803;stroke-width:0.16115002;stroke-miterlimit:10;stroke-opacity:1;stroke-dasharray:none"
               id="rect5361-6"
               width="15.783731"
               height="6.9254642"
               x="336.08688"
               y="-271.97964"
               transform="matrix(0,1,-1,0,0,0)" />
          </g>
          <g
             id="g5611"
             transform="matrix(-1,0,0,-1,459.18626,641.72889)">
            <rect
               y="359.80173"
               x="409.19647"
               height="6.9254642"
               width="15.783731"
               id="rect5363-5"
               style="fill:none;stroke:#f84803;stroke-width:0.16115002;stroke-miterlimit:10;stroke-opacity:1;stroke-dasharray:none" />
            <rect
               style="fill:none;stroke:#f84803;stroke-width:0.16115002;stroke-miterlimit:10;stroke-opacity:1;stroke-dasharray:none"
               id="rect5365-3"
               width="15.783731"
               height="6.9254642"
               x="409.19647"
               y="267.65891" />
          </g>
          <g
             id="g5607"
             transform="matrix(-1,0,0,-1,454.27062,641.72889)">
            <rect
               y="267.65891"
               x="219.91075"
               height="6.9254642"
               width="15.783731"
               id="rect5367-2"
               style="fill:none;stroke:#f84803;stroke-width:0.16115002;stroke-miterlimit:10;stroke-opacity:1;stroke-dasharray:none" />
            <rect
               style="fill:none;stroke:#f84803;stroke-width:0.16115002;stroke-miterlimit:10;stroke-opacity:1;stroke-dasharray:none"
               id="rect5369-4"
               width="15.783731"
               height="6.9254642"
               x="219.91075"
               y="359.80173" />
          </g>
          <path
             transform="matrix(0,0.13104072,-0.12395486,0,262.59885,-24.54418)"
             d="M 822.26415,230.46172 C 822.26415,251.10371 806.43503,267.83736 786.90881,267.83736 767.3826,267.83736 751.55347,251.10371 751.55347,230.46172 751.55347,209.81972 767.3826,193.08607 786.90881,193.08607 806.43503,193.08607 822.26415,209.81972 822.26415,230.46172 z"
             sodipodi:ry="37.375645"
             sodipodi:rx="35.355339"
             sodipodi:cy="230.46172"
             sodipodi:cx="786.90881"
             id="path5080-5-7"
             style="fill:none;stroke:#e386dd;stroke-width:0.7846303;stroke-miterlimit:10;stroke-opacity:1;stroke-dasharray:none"
             sodipodi:type="arc" />
          <path
             sodipodi:type="arc"
             style="fill:none;stroke:#e386dd;stroke-width:0.7846303;stroke-miterlimit:10;stroke-opacity:1;stroke-dasharray:none"
             id="path5094-5-4"
             sodipodi:cx="786.90881"
             sodipodi:cy="230.46172"
             sodipodi:rx="35.355339"
             sodipodi:ry="37.375645"
             d="M 822.26415,230.46172 C 822.26415,251.10371 806.43503,267.83736 786.90881,267.83736 767.3826,267.83736 751.55347,251.10371 751.55347,230.46172 751.55347,209.81972 767.3826,193.08607 786.90881,193.08607 806.43503,193.08607 822.26415,209.81972 822.26415,230.46172 z"
             transform="matrix(0,0.13104072,-0.12395486,0,262.59885,24.87374)" />
          <path
             transform="matrix(0,0.13104072,-0.12395486,0,64.95885,-24.54418)"
             d="M 822.26415,230.46172 C 822.26415,251.10371 806.43503,267.83736 786.90881,267.83736 767.3826,267.83736 751.55347,251.10371 751.55347,230.46172 751.55347,209.81972 767.3826,193.08607 786.90881,193.08607 806.43503,193.08607 822.26415,209.81972 822.26415,230.46172 z"
             sodipodi:ry="37.375645"
             sodipodi:rx="35.355339"
             sodipodi:cy="230.46172"
             sodipodi:cx="786.90881"
             id="path5080-5-7-8"
             style="fill:none;stroke:#e386dd;stroke-width:0.7846303;stroke-miterlimit:10;stroke-opacity:1;stroke-dasharray:none"
             sodipodi:type="arc" />
          <path
             sodipodi:type="arc"
             style="fill:none;stroke:#e386dd;stroke-width:0.7846303;stroke-miterlimit:10;stroke-opacity:1;stroke-dasharray:none"
             id="path5094-5-4-5"
             sodipodi:cx="786.90881"
             sodipodi:cy="230.46172"
             sodipodi:rx="35.355339"
             sodipodi:ry="37.375645"
             d="M 822.26415,230.46172 C 822.26415,251.10371 806.43503,267.83736 786.90881,267.83736 767.3826,267.83736 751.55347,251.10371 751.55347,230.46172 751.55347,209.81972 767.3826,193.08607 786.90881,193.08607 806.43503,193.08607 822.26415,209.81972 822.26415,230.46172 z"
             transform="matrix(0,0.13104072,-0.12395486,0,64.95885,24.87374)" />
          <path
             inkscape:connector-curvature="0"
             id="rect3718"
             d="M 19.63156,381.77086 27.66043,381.77086 27.66043,364.30192 83.9548,364.30192 83.9548,284.76977 27.66043,284.76977 27.66043,267.30082 19.63156,267.30082 19.63156,284.76977 19.63156,364.30192 19.63156,381.77086 z"
             style="fill:none;stroke:#00d500;stroke-width:0.16494444;stroke-miterlimit:10;stroke-opacity:1;stroke-dasharray:none" />
          <path
             inkscape:connector-curvature="0"
             id="rect3718-1"
             d="M 249.36346,381.77087 241.33456,381.77087 241.33456,364.30192 185.04016,364.30192 185.04016,284.76976 241.33456,284.76976 241.33456,267.30082 249.36346,267.30082 249.36346,284.76976 249.36346,364.30192 249.36346,381.77087 z"
             style="fill:none;stroke:#00d500;stroke-width:0.16494444;stroke-miterlimit:10;stroke-opacity:1;stroke-dasharray:none" />
          <g
             id="g4823"
             transform="matrix(0,1,-1,0,460.1227,4.58222)">
            <rect
               style="fill:none;stroke:#00d500;stroke-width:0.1645824;stroke-miterlimit:10;stroke-opacity:1;stroke-dasharray:none"
               id="rect4703-8"
               width="9.7566776"
               height="9.7566776"
               x="-80.705109"
               y="320.95865"
               transform="scale(-1,1)" />
            <rect
               style="fill:none;stroke:#00d500;stroke-width:0.1645824;stroke-miterlimit:10;stroke-opacity:1;stroke-dasharray:none"
               id="rect4703-4-5"
               width="9.7566776"
               height="9.7566776"
               x="-114.54369"
               y="320.95865"
               transform="scale(-1,1)" />
          </g>
        </g>
        <g
           id="g3301">
          <g
             transform="matrix(1.2031416,0,0,1.4159085,12.352044,172.73196)"
             id="g5342">
            <path
               inkscape:connector-curvature="0"
               style="fill:#000000"
               d="M 89.815639,44.198981 C 89.70602,44.15077 88.871221,42.902591 83.932922,35.403332 81.879943,32.285697 78.595869,27.299303 76.599621,24.268771 74.489667,21.065627 68.949728,12.648301 64.374204,5.69358 60.745366,0.17779302 58.367491,-3.4377624 52.786515,-11.925485 51.22388,-14.301991 49.856089,-16.411204 49.747013,-16.612629 49.565257,-16.948217 49.548207,-17.158095 49.543198,-19.121694 49.53786,-21.214548 49.542888,-21.270157 49.758406,-21.505788 L 49.979068,-21.747044 53.889825,-21.747044 C 57.657996,-21.747044 57.808343,-21.739392 58.013582,-21.537028 58.130757,-21.421524 62.656165,-14.571247 68.070083,-6.3141941 74.308764,3.2007577 77.940393,8.6513309 77.986846,8.5694734 78.032951,8.4881964 78.054449,8.522265 78.044829,8.6613784 78.027264,8.9153308 79.119124,10.623942 79.244883,10.539288 79.290658,10.508449 79.328838,10.569146 79.32971,10.674159 79.330582,10.779161 79.628215,11.316269 79.991144,11.86772 80.354045,12.419171 84.459132,18.688298 89.113545,25.799114 93.767958,32.909929 98.161707,39.621663 98.877432,40.714085 99.593158,41.806496 100.2409,42.836047 100.31689,43.001968 100.49178,43.383899 100.40348,43.786274 100.08479,44.05935 99.848008,44.262263 99.686685,44.2685 94.888416,44.260427 92.164818,44.255846 89.88207,44.228194 89.815639,44.198981 z"
               id="path4121" />
            <path
               inkscape:connector-curvature="0"
               style="fill:#000000"
               d="M 11.126984,43.711034 C 10.994831,43.638189 10.831987,43.460786 10.765121,43.316817 10.668406,43.108585 10.643246,36.55073 10.642113,11.257473 10.640524,-24.016246 10.58416,-21.166463 11.28729,-21.363571 11.795626,-21.506073 18.763876,-21.524057 19.240987,-21.384089 19.47032,-21.316817 19.697609,-21.148944 19.836563,-20.944194 20.148185,-20.485018 30.396595,-4.6967488 42.025894,13.239751 43.587773,15.648722 45.268029,18.237111 45.759827,18.991728 46.251606,19.746346 47.356748,21.449617 48.21568,22.776782 L 49.777384,25.189805 49.802883,9.7245865 49.828362,-5.7406323 50.063227,-6.01297 C 50.404048,-6.4081677 50.852939,-6.3819514 51.27326,-5.9422998 51.542875,-5.6602841 57.520689,2.7740032 58.579396,4.3661715 L 58.886581,4.8281555 58.886581,23.963019 C 58.886581,37.76179 58.856597,43.169598 58.779016,43.355065 58.719861,43.496511 58.565232,43.664976 58.435385,43.729419 58.0838,43.903931 50.393353,43.888923 50.081518,43.713113 49.906147,43.614253 40.130605,28.729108 35.405712,21.366398 35.126332,20.931042 32.87597,17.464024 30.404917,13.661915 27.933864,9.8598054 24.557716,4.662488 22.902377,2.1123148 L 19.892646,-2.5243591 19.844207,20.318113 C 19.81742,32.955154 19.758071,43.244849 19.711375,43.349187 19.498454,43.824986 19.30206,43.846685 15.223043,43.845039 12.324926,43.843878 11.307596,43.81059 11.126984,43.711034 z"
               id="path4119" />
            <path
               inkscape:connector-curvature="0"
               style="fill:#000000"
               d="M 80.60285,12.500965 C 80.60285,12.355847 80.624842,12.29648 80.651726,12.369039 80.6786,12.441599 80.6786,12.560332 80.651726,12.632892 80.624842,12.705451 80.60285,12.646084 80.60285,12.500965 z"
               id="path4049" />
          </g>
          <flowRoot
             xml:space="preserve"
             id="flowRoot5317"
             style="font-size:15px;font-style:normal;font-weight:bold;line-height:125%;letter-spacing:0px;word-spacing:0px;fill:#000000;fill-opacity:1;stroke:none;font-family:Sans;-inkscape-font-specification:Sans Bold"
             transform="matrix(0.83416869,0,0,0.91879617,12.848302,137.18177)"><flowRegion
               id="flowRegion5319"><rect
                 id="rect5321"
                 width="142.85715"
                 height="32.142857"
                 x="15.714286"
                 y="110"
                 style="font-size:15px;font-weight:bold;-inkscape-font-specification:Sans Bold" /></flowRegion><flowPara
               id="flowPara5323">NASHMICRO.NET</flowPara></flowRoot>          <path
             inkscape:connector-curvature="0"
             d="M 181.22213,222.95668 C 178.28869,221.69388 172.38916,217.49098 169.57683,214.66041 L 166.81613,211.8818 166.81613,208.53204 166.81613,205.18228 164.75491,205.18228 C 163.62124,205.18228 161.94674,205.44158 161.03379,205.75851 159.00116,206.46413 157.76025,205.87492 157.53823,204.09876 157.42719,203.21034 157.73196,202.65583 158.648,202.07963 159.81388,201.34625 160.00424,201.34397 161.12662,202.04997 161.80778,202.47846 163.35624,202.8147 164.64823,202.8147 L 166.95414,202.8147 166.68,200.26473 C 166.37531,197.43045 166.94698,195.94161 169.24635,193.58114 170.01318,192.79394 170.89005,191.12941 171.2131,189.84776 172.94286,182.98511 178.48407,177.88526 186.02705,176.21372 L 188.5184,175.66163 188.5184,173.40333 C 188.5184,172.16127 188.29644,171.01332 188.02515,170.85237 187.14071,170.3276 187.46469,167.84238 188.48597,167.31768 189.99206,166.54385 190.89896,166.7354 191.76976,168.0113 192.51432,169.10219 192.51523,169.28664 191.78113,170.36218 191.343,171.00411 190.98456,172.47149 190.98456,173.62305 L 190.98456,175.71676 193.19574,176.03508 C 196.35531,176.48995 201.93252,179.31319 203.98945,181.49894 206.15797,183.80329 207.91896,187.10965 208.72296,190.38636 209.05867,191.75446 209.54761,193.00094 209.80954,193.15636 210.07149,193.31178 210.937,194.30195 211.73291,195.35675 212.94102,196.95782 213.18003,197.73213 213.18003,200.04463 L 213.18003,202.8147 214.74802,202.8147 C 215.61044,202.8147 217.06295,202.5554 217.97593,202.23846 220.07323,201.51039 221.31839,202.16376 221.31839,203.99234 221.31839,205.92214 219.75203,206.79209 217.92015,205.87971 217.15003,205.4961 215.90923,205.18228 215.16286,205.18228 213.83799,205.18228 213.80009,205.2591 213.56426,208.42345 213.26067,212.49679 212.35654,213.74659 206.82329,217.74174 199.20227,223.24431 198.77358,223.39406 190.2447,223.53425 184.56573,223.62758 182.46875,223.49334 181.22213,222.95668 z M 201.66565,219.55039 206.27478,217.3097 206.27478,215.07967 206.27478,212.84962 203.68531,214.18781 C 195.88781,218.21738 183.37148,218.28807 176.28231,214.34256 L 174.15752,213.15999 174.30938,215.44523 174.46126,217.73043 178.16047,219.51247 C 182.44311,221.57553 186.59506,222.27037 192.91076,221.98101 196.68289,221.80818 197.47197,221.58911 201.66565,219.55039 z M 189.01163,206.60282 189.01163,197.13249 187.53193,197.13249 186.05222,197.13249 186.05222,206.28712 C 186.05222,211.3222 186.20019,215.58384 186.38105,215.75747 186.56189,215.9311 187.22776,216.07315 187.86075,216.07315 L 189.01163,216.07315 189.01163,206.60282 z M 194.01372,212.99531 C 194.18773,211.4327 194.35421,207.22433 194.38366,203.64335 L 194.43719,197.13249 192.71086,197.13249 190.98456,197.13249 190.98456,206.63429 190.98456,216.13605 192.34094,215.98621 C 193.61081,215.84593 193.71751,215.65514 194.01372,212.99531 z M 184.07928,206.83959 C 184.07928,201.72189 183.88757,198.07954 183.61817,198.07954 183.36455,198.07954 182.5877,198.28734 181.89186,198.54135 L 180.62666,199.00314 180.62666,206.7884 180.62666,214.57367 181.98306,215.04927 C 182.72906,215.31085 183.50591,215.54169 183.70937,215.56224 183.91284,215.58282 184.07928,211.65761 184.07928,206.83959 z M 199.36951,206.61171 C 199.36951,198.76941 199.35475,198.65971 198.25974,198.37799 197.64936,198.22096 196.9835,198.08957 196.78004,198.08602 196.57658,198.08243 196.41012,202.01047 196.41012,206.81495 L 196.41012,215.55037 197.88981,215.05516 199.36951,214.55996 199.36951,206.61171 z M 178.4848,200.12711 C 178.37657,200.02318 177.70441,200.1934 176.99114,200.5054 175.69747,201.0713 175.69431,201.08612 175.69431,206.66371 L 175.69431,212.25478 177.05072,212.93777 178.4071,213.62073 178.54439,206.96841 C 178.61988,203.30962 178.59306,200.23103 178.4848,200.12711 z M 203.36256,212.7263 C 204.79261,211.7487 204.79507,211.7382 204.79507,206.62505 204.79507,201.70361 204.74746,201.47313 203.57935,200.73832 202.91069,200.31773 202.13385,199.97361 201.85303,199.97361 201.52455,199.97361 201.34244,202.42236 201.34244,206.83959 201.34244,210.61587 201.47464,213.70557 201.63622,213.70557 201.79782,213.70557 202.57465,213.2649 203.36256,212.7263 z M 210.40794,209.92167 C 211.34982,207.66178 211.48527,201.38361 210.64404,198.97885 209.97627,197.07003 208.8458,195.71196 207.92467,195.71196 207.39444,195.71196 207.26125,197.35992 207.26125,203.91958 207.26125,208.43374 207.4014,212.26172 207.57271,212.42618 208.20941,213.03745 209.63374,211.77924 210.40794,209.92167 z M 172.24171,204.02642 C 172.24171,199.23991 172.0419,195.6493 171.76644,195.48587 171.0128,195.0387 169.39479,196.90358 168.82385,198.87745 168.13278,201.26666 168.15259,206.99907 168.8589,209.01813 169.52666,210.92695 170.65714,212.28502 171.57831,212.28502 172.10865,212.28502 172.24171,210.62876 172.24171,204.02642 z M 177.39967,199.0362 C 181.99713,196.92973 186.5078,196.06311 191.72442,196.28402 195.54996,196.44602 196.74296,196.7194 200.35598,198.26196 207.01574,201.10532 206.45885,201.30896 206.15769,196.14018 205.8686,191.1783 204.67494,187.53184 202.31669,184.40651 200.37463,181.83276 197.82876,180.28913 193.96186,179.3407 185.88981,177.36091 178.12265,181.15704 175.14022,188.53957 174.06794,191.19383 173.15347,200.44713 173.96344,200.44713 174.15965,200.44713 175.70597,199.8122 177.39967,199.0362 z M 180.13343,195.23843 C 179.59089,194.71758 179.14697,193.90787 179.14697,193.43908 179.14697,192.97032 178.9125,192.36166 178.62593,192.08658 178.26008,191.73532 178.49259,191.14407 179.40679,190.10104 L 180.70868,188.61573 179.40247,188.13895 C 178.68405,187.87672 177.88878,187.66218 177.63516,187.66218 177.04102,187.66218 177.05375,187.48666 177.75512,186.00886 178.44538,184.55445 178.52139,184.57547 182.69149,187.37406 186.27825,189.78116 186.93553,191.01164 186.03459,193.63244 185.1363,196.24547 182.0557,197.08387 180.13343,195.23843 z M 185.06575,192.25529 C 185.06575,191.2706 183.98568,190.50329 182.59959,190.50329 181.21351,190.50329 180.13343,191.2706 180.13343,192.25529 180.13343,192.67831 180.9049,192.87087 182.59959,192.87087 184.29429,192.87087 185.06575,192.67831 185.06575,192.25529 z M 195.04378,195.8687 C 193.96086,195.45034 192.55104,192.13072 193.07476,191.23231 193.33127,190.79227 193.41127,190.30757 193.25257,190.15519 192.97374,189.88753 200.19753,184.82109 200.858,184.82109 201.15179,184.82109 202.32891,186.92305 202.32891,187.4477 202.32891,187.56567 202.12142,187.66218 201.8678,187.66218 201.61417,187.66218 200.80501,187.88179 200.06967,188.15019 L 198.73268,188.63816 199.82389,189.75328 C 200.72247,190.67156 200.85381,191.18197 200.56797,192.64478 200.00169,195.54274 197.69088,196.89128 195.04378,195.8687 z M 199.36951,192.25529 C 199.36951,190.55144 196.16696,189.85733 194.71904,191.24737 193.40538,192.50851 193.83789,192.87087 196.65672,192.87087 198.55378,192.87087 199.36951,192.68576 199.36951,192.25529 z M 184.55692,166.03056 C 183.68398,163.43195 183.62052,163.38228 182.2645,164.23525 181.58789,164.66087 180.94257,164.92103 180.83047,164.81341 180.71836,164.70577 180.3734,163.35698 180.06391,161.8161 179.32363,158.1306 178.96878,157.83723 177.20904,159.45577 L 175.75783,160.79053 174.98873,158.24521 C 173.13523,152.11121 172.81414,150.4966 173.32922,149.90075 174.27114,148.81119 174.61787,149.28346 175.49337,152.84868 176.66278,157.61079 176.83699,157.82623 178.38768,156.42767 179.95444,155.01461 180.32633,155.37039 181.05035,158.97502 181.35986,160.51588 181.70483,161.86467 181.81693,161.97231 181.92904,162.07995 182.56306,161.82688 183.22584,161.40996 L 184.4309,160.65195 184.929,164.09486 C 185.20296,165.98846 185.36792,167.60531 185.29559,167.68786 185.22325,167.77042 184.89086,167.02461 184.55692,166.03056 z M 194.47194,166.6453 C 194.41421,165.16271 195.56913,159.72475 195.94174,159.72475 196.1329,159.72475 196.56564,160.04438 196.90334,160.43502 198.16348,161.8927 198.81099,161.1831 199.70496,157.36471 200.23959,155.0812 200.87961,153.47745 201.32115,153.31478 201.72325,153.16665 201.90484,153.18697 201.72469,153.35991 201.43171,153.64117 203.84753,155.93662 204.43653,155.93662 204.56792,155.93662 205.28898,153.78892 206.03887,151.16395 207.39603,146.41327 207.40679,146.39557 208.37533,147.3254 209.30106,148.21412 209.31106,148.37127 208.58114,150.55913 208.1592,151.82394 207.34378,154.41483 206.76913,156.31669 L 205.7243,159.77461 203.96605,158.29254 C 202.99903,157.47742 202.04147,156.98678 201.83814,157.20221 201.63483,157.41765 201.08327,159.13877 200.61248,161.02691 200.14169,162.91506 199.64819,164.45991 199.51585,164.45991 199.38347,164.45991 198.62962,164.01861 197.84061,163.47924 196.74562,162.73071 196.34953,162.64664 196.16732,163.12409 196.03599,163.46813 195.60864,164.60196 195.21763,165.6437 194.82663,166.68542 194.49105,167.13615 194.47194,166.6453 z"
             style="fill:#000000"
             id="path7129" />
          <path
             inkscape:connector-curvature="0"
             d="M 190.64212,235.41494 C 190.33772,235.24184 190.15251,233.61641 190.09819,230.64125 L 190.01583,226.13001 192.38517,226.13001 194.75453,226.13001 194.87708,227.49261 C 194.98233,228.66275 194.88473,228.8552 194.18601,228.8552 193.58142,228.8552 193.3724,228.62184 193.3724,227.94681 193.3724,227.22009 193.17496,227.0384 192.38517,227.0384 191.43697,227.0384 191.39813,227.12817 191.40229,229.30939 191.40468,230.55843 191.51679,232.19355 191.6514,232.94297 191.85398,234.07073 192.05742,234.30557 192.83173,234.30557 193.61294,234.30557 193.76729,234.12134 193.76729,233.18885 193.76729,232.32165 193.9217,232.09907 194.45835,232.19264 195.32203,232.34325 195.68729,234.95405 194.87726,235.18696 193.72522,235.51823 191.07462,235.66091 190.64212,235.41494 z M 182.39237,235.08371 C 182.02377,234.86859 181.94701,234.27503 182.1229,232.99995 182.27459,231.90047 182.13158,230.19813 181.74983,228.55893 180.99277,225.30816 180.97815,225.58497 181.90697,225.58497 182.5402,225.58497 182.73139,225.91957 182.94507,227.40177 183.08913,228.40101 183.32508,229.21855 183.4694,229.21855 183.61374,229.21855 184.00623,228.52363 184.34165,227.67429 184.76785,226.59501 185.20859,226.09505 185.80537,226.0139 186.27502,225.95005 186.65926,225.9776 186.65926,226.07513 186.65926,226.17267 186.04794,227.42622 185.30079,228.86079 184.55361,230.29538 183.82234,232.35259 183.67572,233.43238 183.40218,235.44686 183.28126,235.60247 182.39237,235.08371 z M 197.37549,234.24617 C 196.67304,232.52817 195.63887,226.261 196.00262,225.92632 196.49193,225.47607 200.21381,224.84608 200.54943,225.15671 200.77291,225.36352 202.45238,232.85808 202.45427,233.65691 202.45526,234.07772 201.1931,234.56619 199.39769,234.83984 197.88069,235.07108 197.68987,235.01504 197.37549,234.24617 z M 200.61095,233.30633 C 200.70836,233.15646 200.49336,231.56386 200.13316,229.76724 199.48021,226.5104 199.0243,225.88681 197.82002,226.60321 197.43569,226.83184 197.47072,227.60674 197.98421,230.23634 198.58157,233.29539 198.71312,233.57885 199.53538,233.57885 200.02953,233.57885 200.51353,233.45621 200.61095,233.30633 z M 176.19467,234.21783 C 175.32591,234.01328 174.551,233.79498 174.47265,233.73271 174.26012,233.5638 176.42785,225.08691 176.77009,224.74863 177.25824,224.26607 180.73591,225.23832 180.73591,225.85734 180.73591,226.28179 180.42314,226.36007 179.36101,226.20148 177.83679,225.97389 177.78118,226.01438 177.4061,227.62524 177.1633,228.66801 177.23673,228.77445 178.3389,228.97728 179.22102,229.13963 179.47234,229.3483 179.29573,229.77179 179.12347,230.18483 178.75246,230.28474 177.97464,230.12755 176.97685,229.9259 176.86165,230.02291 176.48723,231.3802 176.08531,232.8372 176.0934,232.85429 177.3227,233.1474 178.00541,233.31018 178.564,233.66462 178.564,233.93503 178.564,234.59829 178.06399,234.65797 176.19467,234.21783 z M 203.13311,229.47468 C 202.32571,227.21739 201.66509,225.1735 201.66509,224.93272 201.66509,223.98832 202.74348,224.56716 204.72302,226.57413 L 206.79373,228.67352 206.00642,226.52733 C 205.04736,223.91296 205.02179,223.31621 205.87535,223.46902 206.32571,223.54965 207.00705,224.89361 208.04724,227.75306 208.88086,230.04464 209.56291,232.04767 209.56291,232.2042 209.56291,232.36071 209.2496,232.48878 208.86665,232.48878 208.48371,232.48878 207.39866,231.57955 206.45543,230.46828 205.51219,229.35701 204.67,228.51263 204.58386,228.59189 204.49775,228.67113 204.78315,229.6877 205.2181,230.85092 206.18392,233.43397 206.18853,233.57885 205.305,233.57885 204.75793,233.57885 204.27406,232.6645 203.13311,229.47468 z M 171.36477,232.92025 C 170.99153,232.70208 171.06538,232.18399 171.68284,230.68872 172.32842,229.12533 172.38536,228.68098 171.97149,228.43534 170.98917,227.85234 170.354,228.31904 169.58139,230.19156 169.04733,231.48589 168.6334,232.01229 168.25481,231.87861 167.95215,231.77175 167.70452,231.46232 167.70452,231.191 167.70452,230.15218 170.9819,222.6781 171.43742,222.6781 172.31006,222.6781 172.36242,223.06499 171.73437,224.87216 171.06168,226.80772 171.06872,226.83901 172.25268,227.17263 172.92665,227.36253 173.15731,227.11758 173.74977,225.58266 174.13496,224.5847 174.5761,223.77069 174.73007,223.77375 175.90447,223.79711 175.81237,224.54563 174.11604,228.76436 173.13167,231.21248 172.2193,233.21298 172.08857,233.20994 171.95783,233.20688 171.63212,233.0765 171.36477,232.92025 z M 210.83765,227.37924 C 209.2086,224.1229 208.91578,223.74766 208.14295,223.92614 207.57787,224.05664 207.19534,223.93319 207.04459,223.57169 206.87321,223.16077 207.55341,222.69498 209.66893,221.7745 211.23954,221.09114 213.27304,220.10264 214.18782,219.57787 L 215.85104,218.62375 217.28644,220.68845 C 218.32778,222.18634 218.60291,222.86254 218.28872,223.15165 217.62747,223.76008 217.72089,223.9036 219.63903,225.22605 221.20603,226.3064 221.35219,226.52026 220.84347,226.98837 220.33475,227.45647 219.99852,227.31204 218.07283,225.79823 215.74426,223.96774 215.52054,223.60991 216.49052,223.26742 217.12726,223.04258 216.96607,222.54806 215.78011,221.08784 215.3213,220.52294 215.08061,220.4777 214.37709,220.82415 213.54419,221.2343 213.57293,221.30975 215.87419,224.75565 217.63415,227.39098 218.11438,228.38663 217.79586,228.73978 217.56232,228.99871 217.24197,229.13703 217.08398,229.0472 216.926,228.95736 215.8485,227.44669 214.68955,225.69014 212.15227,221.8446 211.33557,220.75827 211.67383,221.67888 211.80233,222.02861 211.77976,222.31725 211.6237,222.32032 211.46762,222.32337 211.09661,222.4677 210.79923,222.64104 210.36632,222.8934 210.62214,223.66245 212.08264,226.49939 213.08587,228.44815 213.9067,230.1667 213.9067,230.3184 213.9067,230.47011 213.62738,230.69287 213.28599,230.8134 212.80668,230.98265 212.24898,230.20041 210.83765,227.37924 z M 163.74651,229.9401 C 163.2768,229.67297 163.52261,228.96882 165.1443,225.93603 167.05392,222.36478 167.08935,222.24081 166.34356,221.73901 165.79561,221.37037 165.69686,221.10988 165.99946,220.83145 166.30204,220.55303 167.01181,220.71512 168.47256,221.39623 170.54005,222.36024 170.94196,223.22315 169.32347,223.22315 168.61842,223.22315 168.03856,223.91691 166.38092,226.74367 164.76996,229.49083 164.19124,230.19302 163.74651,229.9401 z M 155.93459,225.55286 154.27487,224.42975 155.1502,223.28141 C 157.36133,220.38064 160.25062,216.86438 160.42305,216.86438 160.83835,216.86438 163.75561,218.79635 163.75561,219.07137 163.75561,219.73189 162.86813,219.79593 161.88972,219.20604 160.86651,218.58914 160.83225,218.59654 159.9273,219.62891 L 159.00626,220.67964 160.00155,221.42201 C 160.74742,221.97835 160.88387,222.26834 160.546,222.57921 160.20814,222.89009 159.85802,222.85107 159.14883,222.42351 158.62835,222.10971 158.15226,221.91599 158.09085,221.99301 158.02945,222.07005 157.59799,222.59631 157.13205,223.16249 L 156.28488,224.19189 157.35474,225.04484 C 158.10686,225.64447 158.30131,226.01334 158.00944,226.28688 157.71571,226.5622 157.109,226.34757 155.93459,225.55286 z M 221.09125,223.45465 C 218.00884,220.04651 217.06583,218.83205 217.06583,218.27044 217.06583,217.78969 220.02901,215.41096 220.62789,215.41096 220.87061,215.41096 225.98465,221.1535 226.64917,222.17224 226.96132,222.65081 226.09997,223.57162 224.09822,224.89928 L 223.03537,225.60419 221.09125,223.45465 z M 224.31213,223.23577 C 224.7683,222.91777 224.92492,222.54678 224.72909,222.2481 224.07981,221.25777 220.46787,217.22774 220.22957,217.22774 220.09286,217.22774 219.64776,217.45196 219.24045,217.72602 218.54038,218.19705 218.62802,218.37495 220.84325,220.97952 222.13211,222.49489 223.27549,223.73707 223.38407,223.73991 223.49267,223.74275 223.91028,223.51588 224.31213,223.23577 z M 152.33797,222.89767 C 151.87335,222.38258 151.9499,221.96947 152.88501,219.94496 154.02755,217.47132 154.2067,217.31164 155.01651,218.0453 155.41882,218.40978 155.70744,218.29811 156.47761,217.48 157.59861,216.28922 157.64547,216.02221 156.84119,215.40801 156.33771,215.02354 155.75989,215.42638 153.12629,217.99787 150.67979,220.38664 149.90216,220.94934 149.51853,220.60849 149.13295,220.26589 149.45228,219.72772 151.0277,218.06499 152.12673,216.90504 153.75196,215.30964 154.63932,214.51965 L 156.2527,213.08332 157.83224,214.50256 C 158.70102,215.28314 159.41181,216.09984 159.41181,216.31744 159.41181,216.53503 158.64335,217.40705 157.70412,218.25523 156.54048,219.30606 155.78736,219.72356 155.34026,219.5657 154.8828,219.40418 154.57629,219.59277 154.32812,220.1885 152.97851,223.428 152.90569,223.52713 152.33797,222.89767 z M 224.76913,217.95715 C 221.62587,215.05145 221.30015,214.62925 221.82736,214.14413 222.35456,213.65903 222.76681,213.91944 225.55057,216.49602 L 228.68095,219.39342 229.59176,218.60609 C 230.29368,217.99932 230.60987,217.91748 230.97043,218.24926 231.33101,218.58103 231.13091,218.9716 230.09797,219.95222 229.36076,220.65208 228.6555,221.22467 228.53068,221.22467 228.40587,221.22467 226.71317,219.75428 224.76913,217.95715 z M 145.81886,216.79897 C 145.04179,215.96362 144.40598,215.17353 144.40598,215.04319 144.40598,214.63711 151.58209,209.23387 152.12144,209.23387 152.8553,209.23387 155.1859,212.06066 154.9394,212.65177 154.67484,213.28614 148.19833,218.31782 147.64636,218.31782 147.41833,218.31782 146.59595,217.63435 145.81886,216.79897 z M 153.45314,212.27304 C 153.5423,212.20273 153.29626,211.82085 152.90637,211.42445 152.20273,210.70901 152.18697,210.71143 150.7698,211.75151 149.98456,212.32778 148.63131,213.36891 147.76255,214.06508 146.20584,215.31254 146.19361,215.34169 146.91785,216.07992 147.71255,216.88999 147.27758,217.14339 153.45314,212.27304 z M 233.84868,213.05769 C 233.19711,212.56478 231.18291,211.73854 229.37269,211.22163 226.8153,210.49137 226.13287,210.15833 226.3123,209.72812 226.43929,209.4236 226.54321,209.11486 226.54321,209.04205 226.54321,208.96923 227.52194,209.2195 228.71818,209.5982 230.71662,210.23086 230.86381,210.23632 230.53177,209.66541 230.33298,209.32367 229.7985,208.73441 229.34402,208.35593 228.48559,207.6411 228.25006,206.52209 228.88233,206.1625 229.08292,206.04844 230.16246,207.08788 231.28132,208.47237 232.40017,209.85685 234.00133,211.42687 234.83946,211.96131 235.77938,212.56068 236.28147,213.12933 236.1497,213.44528 235.84118,214.18508 235.19506,214.07624 233.84868,213.05769 z M 141.30296,211.15583 C 140.97934,210.62373 141.58897,210.11599 145.26641,207.85487 147.65665,206.38521 149.64775,205.23582 149.69107,205.30068 149.7344,205.36555 150.24347,206.09937 150.82234,206.9314 151.69595,208.18709 151.78286,208.51443 151.33368,208.85744 150.90692,209.18334 150.6451,209.04106 150.09511,208.18436 149.37147,207.05716 149.12466,207.06212 147.41414,208.23828 146.71232,208.72085 146.70759,208.80097 147.32959,209.67446 147.91687,210.49919 147.92214,210.62291 147.37827,210.81496 147.0124,210.94415 146.57358,210.74355 146.28189,210.31379 145.64452,209.37469 145.45219,209.39997 143.41301,210.69095 141.83695,211.68872 141.65187,211.72948 141.30296,211.15583 z M 233.74996,207.85801 C 231.52376,206.7201 229.70233,205.57134 229.70233,205.3052 229.70233,204.75059 231.63675,201.60335 231.97762,201.60335 232.3958,201.60335 239.76662,205.29557 240.31144,205.77796 240.76556,206.18004 240.67761,206.54837 239.75505,208.10807 239.15239,209.12694 238.46541,209.953 238.22843,209.94376 237.99146,209.93449 235.97616,208.9959 233.74996,207.85801 z M 238.59999,207.3805 C 238.92614,206.43492 238.85317,206.37537 235.28021,204.67135 232.48256,203.3371 232.34657,203.30934 231.82492,203.96578 231.52625,204.34161 231.28532,204.7405 231.28951,204.85218 231.29974,205.12453 237.2769,208.09495 237.86969,208.12227 238.12656,208.13411 238.45517,207.80031 238.59999,207.3805 z M 138.92579,207.35251 C 138.01418,205.88408 138.00843,205.82516 138.72835,205.32651 139.67978,204.66754 147.21833,201.15849 147.36054,201.3084 147.55727,201.51574 149.14466,204.47869 149.14466,204.63854 149.14466,204.72504 148.87952,204.88945 148.55545,205.00386 148.17172,205.13936 147.75664,204.83899 147.36529,204.14264 L 146.76435,203.07336 145.40783,203.66857 C 144.25163,204.17591 144.11114,204.36666 144.4565,204.96044 144.88304,205.69379 144.6701,206.69036 144.08687,206.69036 143.89773,206.69036 143.54096,206.2824 143.29403,205.78374 142.84686,204.88067 142.83957,204.87956 141.4297,205.4982 139.9708,206.13834 139.98706,206.075 140.72639,208.23464 141.15661,209.49136 139.85898,208.85563 138.92579,207.35251 z M 137.03105,203.3375 C 136.60187,202.81303 135.28069,199.70482 135.42896,199.56841 135.64606,199.36864 144.92556,196.1466 145.0236,196.23695 145.08191,196.29069 145.49656,197.19133 145.94505,198.23838 L 146.76045,200.14213 145.71301,200.77365 C 145.13691,201.12097 143.9852,201.40516 143.15365,201.40516 142.20143,201.40516 141.64174,201.57455 141.64174,201.86273 141.64174,202.28018 140.25225,202.96968 138.20781,203.56675 137.74623,203.70156 137.24983,203.60486 137.03105,203.3375 z M 140.35614,201.16629 C 140.93692,200.72278 140.96029,200.50649 140.49976,199.83766 140.21608,199.4257 139.92222,199.42273 138.7288,199.81982 137.38375,200.26736 136.88577,201.10298 137.58222,201.7438 137.92355,202.05788 139.66277,201.69579 140.35614,201.16629 z M 144.80086,199.04574 C 144.80086,198.09817 144.28716,197.91902 142.87178,198.37303 141.59574,198.78234 141.32635,199.35099 142.07996,200.04444 142.73477,200.64698 144.80086,199.88861 144.80086,199.04574 z M 236.36562,202.26934 C 232.81282,201.01923 232.19926,200.68784 232.36405,200.10803 232.4711,199.73138 232.59242,199.42321 232.63366,199.42321 232.6749,199.42321 234.55923,200.08681 236.82108,200.8979 240.66468,202.27618 240.96654,202.33102 241.43873,201.73684 241.71659,201.38717 241.94393,200.98545 241.94393,200.8441 241.94393,200.70274 240.1225,199.93904 237.8963,199.14695 235.31361,198.22805 233.80246,197.4914 233.721,197.11158 233.64877,196.77484 233.84777,196.51634 234.17921,196.51634 235.19817,196.51634 243.18658,199.50278 243.37479,199.95409 243.70566,200.74749 242.02545,203.78494 241.26691,203.76468 240.8791,203.75431 238.67353,203.08143 236.36562,202.26934 z M 221.86686,183.79882 C 221.86686,183.2992 221.9565,183.09481 222.06604,183.34461 222.1756,183.59441 222.1756,184.0032 222.06604,184.25301 221.9565,184.50281 221.86686,184.29843 221.86686,183.79882 z M 221.86686,180.52859 C 221.86686,180.02897 221.9565,179.82458 222.06604,180.07439 222.1756,180.32419 222.1756,180.73298 222.06604,180.98278 221.9565,181.23259 221.86686,181.02822 221.86686,180.52859 z M 223.41488,155.30937 C 222.85814,154.69209 223.15426,154.00345 223.97641,154.00345 224.83145,154.00345 225.11537,154.74628 224.48283,155.32831 223.98041,155.79062 223.84681,155.78823 223.41488,155.30937 z M 152.77035,151.12509 C 150.99343,149.34216 149.53956,147.63721 149.53956,147.33631 149.53956,146.74739 152.20178,144.55614 152.91726,144.55614 153.1557,144.55614 153.76325,144.96012 154.26737,145.45389 155.03707,146.20776 155.10187,146.44261 154.67182,146.91943 154.21213,147.42907 154.07151,147.41099 153.2985,146.74275 152.47057,146.02707 152.41239,146.02362 151.7931,146.65329 151.18787,147.26866 151.31176,147.4721 153.84156,150.01692 156.21969,152.40918 156.61003,152.66769 157.18323,152.22995 157.99245,151.61199 158.01061,150.95842 157.23506,150.36616 156.77208,150.01262 156.74143,149.79524 157.0987,149.39915 157.48508,148.97076 157.7411,149.04826 158.68313,149.87869 159.3011,150.42346 159.80671,151.05069 159.80671,151.2725 159.80671,151.77496 156.95858,154.36681 156.40644,154.36681 156.18353,154.36681 154.54728,152.90803 152.77035,151.12509 z M 221.45311,153.50662 C 221.11173,153.12813 221.15122,152.89813 221.61894,152.54094 222.3737,151.96459 223.21593,152.57232 222.85657,153.434 222.56408,154.13536 222.04444,154.16226 221.45311,153.50662 z M 219.87124,152.21019 C 219.56769,152.03751 219.42908,151.63532 219.56268,151.31493 219.83967,150.65076 220.17252,150.59897 221.01474,151.08902 221.54125,151.39537 221.54125,151.49423 221.01474,151.97871 220.63673,152.32653 220.22296,152.4103 219.87124,152.21019 z M 217.87556,150.57367 C 217.45944,150.11231 217.6137,149.71568 218.80055,148.1956 219.58397,147.19221 220.22495,146.27086 220.22495,146.14814 220.22495,146.02542 219.51363,146.51632 218.64426,147.23905 216.14511,149.31659 215.77193,149.03012 217.06007,146.02304 217.49127,145.0164 217.78737,144.19278 217.71804,144.19278 217.64871,144.19278 216.91888,145.0921 216.09615,146.19126 214.53912,148.27149 214.41258,148.35895 213.62578,147.89887 213.29007,147.70256 214.04323,146.43104 216.15147,143.63498 217.8037,141.44369 219.21415,139.58665 219.28581,139.50819 219.35747,139.42975 219.67291,139.5617 219.98679,139.80139 220.47969,140.1778 220.42715,140.58987 219.60145,142.82369 219.07562,144.24625 218.64539,145.47068 218.64539,145.54467 218.64539,145.61867 219.75136,144.8558 221.1031,143.84937 223.16696,142.31278 223.6463,142.0982 224.09418,142.51031 224.54206,142.92245 224.16946,143.60609 221.76911,146.77633 218.19955,151.49075 218.46724,151.22967 217.87556,150.57367 z M 158.05521,146.93825 C 156.62511,145.05084 155.36332,143.28671 155.25123,143.01793 155.04068,142.51304 158.23146,140.19278 159.1272,140.19944 159.74142,140.20398 164.9453,147.01836 164.9253,147.79193 164.90891,148.42553 162.10902,150.36987 161.213,150.36987 160.90632,150.36987 159.48531,148.82564 158.05521,146.93825 z M 163.10387,147.91482 C 163.20398,147.76575 162.26081,146.29161 161.00792,144.63894 L 158.72992,141.63409 157.84137,142.29613 156.95283,142.95818 159.23864,145.91607 C 161.1559,148.39707 161.63711,148.8185 162.22315,148.52989 162.60744,148.34065 163.00375,148.06386 163.10387,147.91482 z M 163.86637,142.95308 C 161.87007,139.26538 161.53604,138.40393 162.03424,138.22802 162.42443,138.09024 163.57231,138.76321 165.22645,140.09949 L 167.80938,142.1861 166.39357,139.59918 C 165.61488,138.17638 165.08779,136.91101 165.22228,136.78727 165.96317,136.10554 166.74185,136.98092 168.87093,140.88907 170.85013,144.52201 171.12641,145.25177 170.59388,145.4398 169.93063,145.67399 169.41083,145.34957 166.57831,142.93348 L 164.85976,141.4676 166.3149,144.15272 C 167.46285,146.27103 167.6589,146.90265 167.24365,147.14486 166.95415,147.31373 166.62515,147.45439 166.51253,147.45745 166.39992,147.46052 165.20914,145.43354 163.86637,142.95308 z M 210.25785,146.26601 C 209.4455,145.82519 208.77912,145.33918 208.777,145.18597 208.77367,144.94597 213.02452,136.93174 213.31177,136.63648 213.55509,136.38639 217.06583,138.19699 217.06583,138.57259 217.06583,139.34783 216.57055,139.44003 215.39951,138.8828 214.75529,138.57627 214.17846,138.37841 214.11767,138.4431 214.05688,138.50781 213.7127,139.09343 213.35285,139.74452 212.70745,140.91215 212.71216,140.934 213.69751,141.3471 214.65865,141.75006 214.96844,142.368 214.44899,142.84599 214.31285,142.97124 213.71904,142.8442 213.12941,142.56361 212.0915,142.06975 212.03649,142.09374 211.40246,143.31716 210.53122,144.99828 210.55817,145.12252 211.90569,145.6361 212.64004,145.91599 212.98582,146.26451 212.85067,146.58857 212.56173,147.28143 212.00041,147.21161 210.25785,146.26601 z M 206.53174,144.68623 C 206.19443,144.56079 206.27653,143.95415 206.83177,142.46915 207.43189,140.86417 207.48926,140.36236 207.0987,140.13421 205.93086,139.45203 205.35549,139.85543 204.67872,141.83097 203.97843,143.87513 203.81391,144.03542 202.94008,143.52511 202.55411,143.29972 202.84182,142.20328 204.18465,138.78219 205.14529,136.33481 206.01215,134.25801 206.11101,134.16705 206.20986,134.07609 206.5685,134.09973 206.90797,134.2196 207.46027,134.4146 207.44876,134.64195 206.79867,136.38059 206.16362,138.07904 206.14681,138.35 206.66516,138.53303 207.91754,138.97524 208.33605,138.68343 208.97058,136.92563 209.64459,135.05842 209.80346,134.9144 210.64611,135.4068 211.01755,135.62386 210.71693,136.79038 209.4106,140.20106 207.71243,144.63476 207.45822,145.03082 206.53174,144.68623 z M 171.82961,140.34647 C 170.4661,136.82501 170.26403,136.51355 169.43709,136.65902 168.68004,136.79217 168.09941,136.35748 168.09941,135.65751 168.09941,135.40175 172.79222,134.09766 173.0057,134.29411 173.48255,134.73289 173.20185,135.39494 172.46362,135.57256 171.73022,135.74904 171.76007,135.9251 173.10256,139.33937 175.06291,144.32499 175.03541,144.19278 174.11178,144.19278 173.46159,144.19278 173.05086,143.50056 171.82961,140.34647 z M 176.99641,142.64853 C 176.36487,140.86352 174.90386,133.79331 175.12738,133.60385 175.64541,133.16474 179.3519,132.6085 179.69359,132.9186 179.88046,133.08821 180.27699,134.18182 180.57476,135.34883 181.05911,137.2471 181.04901,137.51687 180.47902,137.90916 179.90671,138.30302 179.96773,138.52809 181.07868,140.12111 182.52697,142.19787 182.56468,142.376 181.55613,142.376 181.06012,142.376 180.30691,141.65538 179.38422,140.29808 177.82859,138.00963 177.64424,137.28899 178.61448,137.28899 179.14866,137.28899 179.21233,137.03032 178.99128,135.75836 178.67173,133.91958 178.64439,133.88865 177.60655,134.19174 176.59782,134.48634 176.59707,134.45494 177.72315,139.00905 178.22886,141.05422 178.5509,142.81197 178.43879,142.91514 178.05455,143.2687 177.15714,143.10281 176.99641,142.64853 z M 198.91101,141.94844 C 198.91657,141.48413 199.26742,139.71441 199.69064,138.0157 200.64965,134.16655 200.64965,134.14424 199.69064,133.91348 199.25627,133.80896 198.90086,133.46285 198.90086,133.14439 198.90086,132.4539 198.94291,132.4515 201.79669,132.97886 203.56471,133.30557 204.03445,133.53585 204.03445,134.07584 204.03445,134.61051 203.83373,134.71297 203.11268,134.54646 202.22644,134.34179 202.15319,134.49201 201.21177,138.44512 200.47081,141.55651 200.07066,142.58535 199.56675,142.67464 199.0944,142.75835 198.90381,142.54727 198.91101,141.94844 z M 183.32568,141.6076 C 182.86502,140.39136 182.34505,132.75612 182.70062,132.42894 183.35605,131.82585 187.40871,131.67732 187.62991,132.24829 187.9952,133.19125 188.58297,141.10442 188.30696,141.36349 188.15505,141.50608 187.015,141.73258 185.77354,141.86683 184.02588,142.05584 183.47332,141.99732 183.32568,141.6076 z M 186.84268,139.3783 C 186.75368,138.7288 186.57301,137.09368 186.44119,135.74472 186.20753,133.35376 186.1737,133.29204 185.09677,133.29204 184.01914,133.29204 183.99607,133.33438 184.15571,135.018 184.69801,140.73684 184.64295,140.5592 185.87308,140.5592 186.91949,140.5592 186.99233,140.47047 186.84268,139.3783 z M 191.49667,141.7466 189.81839,141.6075 189.81839,137.85855 C 189.81839,133.20495 190.08566,131.83861 190.99594,131.83861 191.61742,131.83861 191.66205,132.23667 191.48469,136.19891 L 191.28953,140.5592 192.52841,140.5592 C 193.50402,140.5592 193.76729,140.71363 193.76729,141.28592 193.76729,141.68563 193.63402,141.98408 193.47112,141.94917 193.30824,141.91424 192.41973,141.8231 191.49667,141.7466 z"
             style="fill:#000000"
             id="path5413" />
          <flowRoot
             transform="matrix(1.0155325,0,0,0.9245724,-257.37727,-9.1430528)"
             style="font-size:13.30000019px;font-style:normal;font-weight:bold;line-height:125%;letter-spacing:0px;word-spacing:0px;fill:#000000;fill-opacity:1;stroke:none;font-family:Sans;-inkscape-font-specification:Sans Bold"
             id="flowRoot6791"
             xml:space="preserve"><flowRegion
               id="flowRegion6793"><rect
                 style="font-size:13.30000019px;font-weight:bold;-inkscape-font-specification:Sans Bold"
                 y="268.92856"
                 x="398.92856"
                 height="27.5"
                 width="116.07143"
                 id="rect6795" /></flowRegion><flowPara
               id="flowPara6797">MTRAS.COM</flowPara></flowRoot>          <path
             sodipodi:nodetypes="ccccscccccsccscccccsccsccsccsscsccsscscssscscsccsscccscsccssccccccssscscccccscccccccccccccccssssscccccccsccsssccscccsscccscccccccccsccccccccccccccccsccccccccsscccccccssccsscsscsssssssscccccsscccscssccsscsccssccccscsscscccssscccscscccsscccscccccsccsccssscccccccccscccccccssccsccscccssccsccssssscccscccssccccscssccssscsscssccccccccsccssssssccccccsccccccccccccccscssssssscccsscsscccccssscsscccsscc"
             inkscape:connector-curvature="0"
             id="path3027"
             d="M 107.09943,357.19062 C 105.83775,357.05364 102.30733,356.52682 99.254173,356.01982 L 93.702725,355.0981 93.748932,352.7647 C 93.806693,349.88233 92.902432,348.27148 90.076271,346.22144 86.983977,343.97829 87.232717,342.70238 90.637289,343.34447 L 93.387269,343.86316 93.517883,341.10484 C 93.643662,338.44948 93.546059,338.30976 90.911367,337.36593 88.758794,336.59487 87.222749,336.60511 83.719915,337.4134 80.633467,338.12579 79.082265,338.18088 78.668611,337.59268 78.254964,337.00449 76.667515,337.11179 73.499188,337.94211 L 68.926739,339.1402 61.789586,334.7684 C 57.864156,332.36386 54.648085,330.02958 54.642889,329.58118 54.635505,329.13267 56.529816,321.24336 58.847819,312.04951 L 63.062208,295.33324 65.869027,294.30685 68.675762,293.28057 70.847045,296.54933 C 73.300775,300.24331 73.454135,300.35919 73.343237,298.43555 73.279699,297.33255 74.133202,296.83812 77.564705,295.99034 89.594322,293.01799 95.221653,293.20906 99.251425,296.72665 L 101.15296,298.38652 103.64626,295.84061 C 105.01753,294.44032 106.26555,293.29458 106.41963,293.29458 106.57364,293.29458 107.22585,294.4764 107.86903,295.92072 L 109.03842,298.54691 109.64579,296.27529 C 109.97981,295.02607 110.25316,293.66087 110.25316,293.24156 110.25316,292.24993 110.32247,292.26268 112.74537,293.70235 113.87773,294.3751 114.91694,294.92547 115.05471,294.92547 115.19261,294.92547 115.17181,293.50924 115.00849,291.7782 L 114.71166,288.631 118.64737,288.13113 C 120.81207,287.8562 124.67492,287.39497 127.23161,287.10618 L 131.88008,286.5811 132.25741,290.62584 C 132.57691,294.05082 132.9798,295.06477 134.88719,297.24434 137.60294,300.34747 137.78034,300.38022 137.78034,297.77951 137.78034,296.58741 138.1098,295.74089 138.57371,295.74089 139.54064,295.74089 140.05603,293.24696 140.0665,288.51749 140.0737,285.24877 140.17783,284.99846 141.36462,285.39895 143.87251,286.24528 153.64131,287.67977 160.71964,288.24119 L 167.88813,288.80976 167.69225,293.7991 C 167.47008,299.45721 167.23636,299.19519 173.45286,300.25447 177.09101,300.87451 176.79071,301.33078 177.63022,293.90614 177.82048,292.22434 178.17983,290.84831 178.42886,290.84831 178.67788,290.84831 181.8275,292.17343 185.42797,293.79301 191.83191,296.67363 195.69743,298.99975 197.42243,301.01093 198.17469,301.88799 207.9352,306.10214 212.5285,307.53312 213.45891,307.8229 214.05033,308.46312 213.90728,309.02577 213.61994,310.15631 210.62309,325.91444 208.52488,337.3277 207.74163,341.58829 207.0004,345.51608 206.87757,346.05591 206.73043,346.70345 204.37302,345.50736 199.9513,342.5418 L 193.24808,338.04607 190.20599,339.80175 C 186.9752,341.66608 185.95279,341.45733 185.95279,338.9333 185.95279,337.72937 185.20016,337.07499 182.6553,336.06621 180.84165,335.34728 178.4882,334.37672 177.42546,333.90946 175.77534,333.18391 175.14703,333.34134 173.12427,334.98676 168.35355,338.86768 159.99826,336.97949 156.863,331.31178 156.03318,329.81196 154.9806,329.18812 152.55098,328.75651 149.2114,328.16328 146.91528,328.9674 148.99176,330.00311 149.85097,330.43169 149.62339,330.67619 147.95009,331.1226 146.77253,331.43671 145.80906,332.00357 145.80906,332.38236 145.80906,332.76109 146.32524,336.63783 146.95607,340.9971 147.58691,345.35651 148.10301,349.11216 148.10301,349.34313 148.10301,349.57402 148.87717,349.54278 149.82345,349.27359 152.8569,348.41091 151.66513,349.43863 147.6729,351.12801 136.3225,355.93105 119.14635,358.49741 107.09906,357.19014 z M 105.52237,353.54936 C 108.92673,351.98809 107.76607,350.69787 102.99672,350.74191 99.840169,350.77074 98.533875,350.47825 98.346073,349.69932 98.202469,349.10362 99.464349,346.72563 101.15036,344.41494 103.55572,341.11837 104.2176,339.66754 104.22395,337.67775 L 104.2319,335.14182 101.40971,336.80931 C 96.191483,339.8924 93.406411,345.68475 94.741367,350.67757 95.871411,354.90374 100.10819,356.03228 105.52223,353.54936 z M 110.82702,347.5822 C 110.98478,344.54696 110.96501,341.93309 110.78298,341.77363 110.60117,341.61413 109.85915,341.70401 109.13408,341.97394 107.90318,342.43166 107.83567,342.77688 108.1164,347.17947 108.28181,349.77297 108.59582,352.30613 108.8143,352.80866 109.73309,354.92244 110.55655,352.78352 110.82687,347.5822 z M 119.02693,352.21536 C 120.70744,351.53008 119.93134,349.11305 118.11854,349.38642 116.10013,349.6907 115.99645,347.49166 117.99559,346.7782 119.18137,346.35502 119.42925,345.7757 119.42925,343.42807 119.42925,340.72772 119.33163,340.58963 117.42209,340.58963 116.02027,340.58963 115.41492,340.22071 115.41492,339.36651 115.41492,338.56114 115.98157,338.14331 117.07399,338.14331 118.81451,338.14331 119.63516,336.6748 118.87364,334.9228 118.1896,333.34892 113.69462,334.61374 113.69397,336.38032 113.69364,337.77318 115.3329,350.72663 115.75954,352.70181 115.9103,353.39948 116.36561,353.59044 116.99681,353.22087 117.54613,352.8992 118.45971,352.44674 119.02693,352.21536 z M 123.22985,348.32406 122.85808,343.82696 126.78114,347.5361 C 131.29994,351.80859 132.92428,351.83015 132.40442,347.61053 132.23258,346.2156 131.91921,342.78087 131.7081,339.97785 131.42629,336.23717 131.09568,334.88146 130.46513,334.88146 129.78079,334.88146 129.66151,335.70355 129.87899,338.92132 130.19676,343.62266 130.3517,343.65637 124.38033,337.72105 122.37865,335.73146 120.62701,334.26562 120.48781,334.46352 120.29669,334.73538 121.91519,351.54427 122.23577,352.61696 122.26897,352.72917 122.59027,352.82086 122.94912,352.82086 123.40277,352.82086 123.48834,351.45074 123.22985,348.32376 z M 145.95282,348.75275 C 146.18935,348.75275 146.38293,348.27814 146.38293,347.70877 146.38293,346.93863 145.30343,346.75118 142.16557,346.97645 138.5332,347.23725 137.89392,347.07798 137.55665,345.82828 137.26446,344.74565 137.9784,343.30111 140.36895,340.13756 143.14897,336.45889 143.52234,335.6117 143.19085,333.7341 142.73973,331.1782 141.80196,331.3563 137.78071,334.76182 129.64563,341.65117 133.7297,353.55975 142.94204,349.81149 144.3614,349.23406 145.71621,348.75759 145.95282,348.75275 z M 111.92695,337.45285 C 112.92285,334.80711 110.42089,333.08745 107.71979,334.56117 106.80577,335.05992 106.48613,337.40716 107.19501,338.41517 108.04188,339.61932 111.36601,338.94324 111.92695,337.45285 z M 204.82448,336.38021 C 205.17223,334.96206 205.36348,333.66914 205.24935,333.50698 204.7858,332.84784 197.42977,330.25097 197.15058,330.64791 196.06891,332.18603 197.13112,334.24705 200.14678,336.46022 201.96042,337.79122 203.61263,338.89807 203.81834,338.91959 204.02405,338.94066 204.47675,337.79851 204.82448,336.38021 z M 73.705325,333.05126 79.308111,331.21221 78.943057,328.7659 C 78.742406,327.42051 78.499223,326.19525 78.402838,326.04315 78.23655,325.78071 66.069678,330.81857 65.573365,331.35533 65.287507,331.66439 67.280377,334.87991 67.761462,334.88601 67.949114,334.88601 70.62394,334.06263 73.705325,333.05126 z M 193.58521,332.04035 C 194.74969,331.34857 195.6977,330.32883 195.69194,329.77428 195.68455,329.21966 194.90348,326.75849 193.95242,324.30504 L 192.22333,319.84421 193.53271,318.41131 C 194.25288,317.62328 195.00631,316.97035 195.20689,316.96041 196.0055,316.92065 197.35398,311.43777 197.02811,309.55521 196.52992,306.67673 195.80601,305.62697 192.87091,303.52591 189.55278,301.15065 182.07488,297.72213 181.62072,298.36785 181.21263,298.94809 175.53172,326.86585 175.76024,327.16796 176.13866,327.66834 182.15566,329.95245 182.35372,329.67091 182.47452,329.49899 183.16318,326.65644 183.8839,323.35418 L 185.19425,317.34998 187.09678,325.76463 C 189.20144,335.07364 188.92676,334.808 193.58521,332.04035 z M 185.58494,314.44625 C 185.80263,313.35234 186.13583,311.44831 186.32537,310.21491 186.67873,307.91553 187.37716,307.47185 188.72733,308.6888 190.05653,309.88682 189.23125,313.08759 187.14834,314.81264 L 185.18926,316.4351 z M 101.21526,329.97774 C 104.13615,329.1011 106.72455,328.37799 106.96715,328.371 107.20989,328.36139 106.47299,326.57673 105.32981,324.39932 L 103.25117,320.44039 100.01396,325.01975 C 98.233512,327.53842 96.002521,330.4311 95.056307,331.44799 93.948932,332.63809 93.793483,332.98951 94.620204,332.4343 95.326562,331.95987 98.294381,330.85443 101.21526,329.97774 z M 90.326747,328.18207 C 99.483199,322.23869 103.16113,309.95621 97.987299,302.59956 96.631338,300.67149 95.385915,299.80504 93.345104,299.36984 90.553965,298.77473 80.103499,300.22631 78.775113,301.39371 78.247743,301.85716 78.513233,305.3063 79.883564,315.79223 80.874697,323.37626 81.793471,330.08019 81.925317,330.68976 82.265679,332.26304 85.549668,331.28283 90.326747,328.18207 z M 87.330695,315.1075 C 86.923256,311.85596 86.467225,308.73701 86.317256,308.1764 86.126573,307.46353 86.752637,307.15707 88.399941,307.15707 92.429792,307.15707 94.054711,310.99657 92.192173,316.11784 91.410796,318.26637 89.295254,321.01938 88.425575,321.01938 88.230772,321.01938 87.738134,318.35903 87.330695,315.1075 z M 171.05162,330.13713 C 173.82298,328.08062 175.44558,323.06144 176.20653,314.19158 176.54798,310.21213 176.75159,306.86762 176.65903,306.75936 176.56646,306.65114 175.16832,306.32294 173.552,306.02986 L 170.61335,305.49731 169.90952,313.46223 C 169.09059,322.73116 168.63673,324.28108 166.74148,324.28108 164.4131,324.28108 163.99655,321.93833 164.77049,313.19573 165.14696,308.9431 165.35735,305.34402 165.23801,305.19768 165.11873,305.05146 163.68557,304.68965 162.0533,304.39357 L 159.08562,303.85548 158.6207,308.56412 C 157.75398,317.34192 158.01341,323.91749 159.32706,326.46375 161.86254,331.37844 167.14741,333.03425 171.05162,330.13713 z M 168.74871,328.03781 C 168.74871,327.86152 169.14922,327.49867 169.63877,327.2317 170.14909,326.95322 170.37927,327.08991 170.17832,327.55213 169.84158,328.32693 168.74871,328.69817 168.74871,328.03781 z M 205.67693,330.33013 C 206.46716,327.40195 206.04414,325.87663 204.30456,325.38189 203.35836,325.11281 202.58412,324.63276 202.58412,324.31509 202.58412,323.09223 203.32767,322.78251 204.60516,323.47312 205.753,324.0937 206.01282,323.87324 206.50654,321.85954 207.14372,319.26035 206.90313,318.5731 205.35598,318.5731 204.77141,318.5731 204.30456,317.98967 204.30456,317.25921 204.30456,316.20132 204.69249,316.04873 206.29513,316.47628 208.09837,316.95729 208.32099,316.80674 208.66176,314.87642 209.14522,312.13758 208.7646,311.71506 204.47085,310.22352 L 200.90938,308.9865 199.09124,317.24531 C 198.09123,321.78774 197.24227,326.01453 197.20457,326.63818 197.16272,327.33392 198.57635,328.49087 200.86366,329.63235 205.45107,331.92171 205.25505,331.89328 205.67693,330.33013 z M 65.881232,326.57004 C 66.344265,324.27435 66.776758,323.83305 69.538729,322.83808 72.664743,321.71194 72.67348,321.71417 73.909954,323.91904 L 75.14902,326.12848 77.503984,323.43744 C 78.799296,321.95733 79.85902,320.58728 79.85902,320.39277 79.85902,319.4381 66.978428,300.62287 66.484996,300.85676 65.81589,301.1739 59.673337,325.01849 59.953171,326.21226 60.135839,326.99148 63.412347,328.98341 64.722234,329.11159 65.070829,329.14561 65.592422,328.00205 65.881232,326.57004 z M 67.649764,315.31136 C 67.899517,313.95348 68.962915,312.90893 68.962915,314.02151 68.962915,314.20906 69.119518,314.943 69.311008,315.65239 69.557433,316.56539 69.321839,316.94221 68.504498,316.94221 67.632214,316.94221 67.423189,316.54347 67.649764,315.31136 z M 120.00276,326.72532 C 124.06668,326.58715 124.0347,326.31818 119.85936,325.51847 118.10317,325.18202 117.13537,324.59682 117.13537,323.8715 117.13537,321.58147 116.14973,321.9872 115.25867,324.64407 114.40488,327.18984 114.40835,327.36465 115.30705,327.11782 115.83926,326.9717 117.95206,326.79513 120.00224,326.72532 z M 146.1547,313.41235 C 146.50228,307.50527 146.76041,302.63099 146.7282,302.58063 146.6957,302.53057 145.57288,302.28992 144.23238,302.04657 L 141.7951,301.60427 141.7951,306.89464 141.7951,312.18505 136.88424,306.73259 C 134.18334,303.73376 131.79619,301.52899 131.57958,301.83305 131.13495,302.45722 129.82801,322.72262 130.17134,323.66956 130.29336,324.00582 131.41012,324.28108 132.65316,324.28108 134.79895,324.28108 134.91866,324.14705 135.0191,321.63094 135.11361,319.26596 135.26625,316.85071 135.43029,315.12432 135.46135,314.79715 137.57803,316.93027 140.13408,319.86447 142.69005,322.79867 144.94811,324.96381 145.15202,324.6759 145.35592,324.388 145.80711,319.31942 146.1547,313.41235 z M 114.58423,313.47709 118.28505,302.67273 115.89276,301.22053 C 114.57701,300.42185 113.30386,300.05486 113.06356,300.40514 112.82328,300.75527 112.01656,303.37247 111.27077,306.22085 L 109.9149,311.39991 107.75516,306.4248 C 106.56735,303.68836 105.28865,301.4627 104.9137,301.47885 103.71269,301.52991 100.90155,305.32816 101.21231,306.47937 101.62668,308.01479 110.17337,324.28144 110.56579,324.28144 110.74037,324.28144 112.54869,319.41951 114.58423,313.47709 z M 156.43037,312.42855 156.84611,301.3912 160.21674,301.93339 163.58738,302.47567 163.58738,298.40397 163.58738,294.33243 157.10077,293.76442 C 153.53308,293.45205 149.16901,292.91764 147.40265,292.57676 L 144.19122,291.95703 143.85339,294.35901 C 143.02608,300.24024 143.2063,300.63408 146.72351,300.63408 L 149.93148,300.63408 149.60577,304.50733 C 149.42678,306.63772 149.11573,311.56051 148.91472,315.44702 148.50244,323.41844 148.31622,323.10661 153.63612,323.355 L 156.01462,323.4661 z M 128.60497,318.98124 C 128.60497,316.97586 128.52981,316.94258 123.99693,316.94258 119.61683,316.94258 119.41835,317.02093 119.98333,318.52186 120.5707,320.08231 122.04514,320.62171 126.45441,320.88931 128.39046,321.00677 128.60497,320.81684 128.60497,318.98124 z M 125.88092,314.50755 129.17848,314.49609 129.17848,311.64204 C 129.17848,308.85606 129.1236,308.78799 126.88453,308.78799 125.62286,308.78799 124.59058,308.42116 124.59058,307.97265 124.59058,307.52417 125.3648,307.15722 126.31103,307.15722 127.93414,307.15722 128.03147,306.97369 128.03147,303.91585 128.03147,300.72577 128.0033,300.68258 126.25298,301.18027 124.72379,301.61517 124.50329,301.46946 124.68054,300.14068 124.82307,299.07254 125.46091,298.51622 126.74583,298.33968 128.37002,298.11644 128.60497,297.78761 128.60497,295.73768 128.60497,294.44708 128.4114,293.23649 128.17486,293.04738 127.93833,292.85834 125.80922,292.92841 123.44365,293.20314 L 119.14254,293.70261 119.35039,303.89552 C 119.46477,309.50156 119.68744,314.39548 119.84527,314.77094 120.0031,315.14639 120.68377,315.24315 121.35785,314.98597 122.03186,314.72871 124.06733,314.51328 125.88092,314.50718 z M 181.45335,352.06636 C 181.64223,348.24657 181.57473,348.02765 180.07493,347.60191 177.17707,346.77935 178.33492,345.37515 181.79538,345.51516 183.60903,345.58858 186.06067,345.37984 187.24343,345.05127 189.61493,344.39246 190.28555,345.68893 188.10372,346.71413 L 186.81333,347.32048 188.10372,347.68145 C 189.55992,348.08873 189.94004,351.19063 188.53377,351.19063 188.06069,351.19063 187.67363,351.55755 187.67363,352.00606 187.67363,352.45447 188.07592,352.82145 188.5677,352.82145 189.05939,352.82145 189.30222,353.1884 189.10734,353.63691 188.91241,354.08539 188.25195,354.45234 187.63976,354.45234 186.79223,354.45234 186.52661,353.88455 186.52661,352.07272 186.52661,348.49029 186.02344,347.24011 184.76912,347.7064 183.86275,348.04348 183.65922,348.84925 183.65922,352.10116 183.65922,355.6007 183.51351,356.08322 182.4569,356.08322 181.37198,356.08322 181.27401,355.69106 181.45335,352.06636 z M 194.60529,354.60407 C 193.1154,353.55746 192.59048,353.47253 192.40694,354.24848 191.79205,356.84807 191.07126,354.85401 191.22793,350.98674 L 191.40123,346.7057 193.57112,346.80143 C 196.25951,346.9197 196.54955,347.30917 195.67634,349.62897 195.06629,351.24983 195.16343,351.65438 196.4931,353.03168 197.32308,353.89128 197.85665,354.92965 197.67865,355.33905 197.25418,356.31545 196.93165,356.23837 194.60529,354.60426 z M 193.9819,348.6445 C 193.9819,348.25089 193.5948,347.9289 193.12167,347.9289 192.62724,347.9289 192.26143,348.66484 192.26143,349.65962 192.26143,351.10553 192.40294,351.22332 193.12167,350.37517 193.5948,349.81682 193.9819,349.03807 193.9819,348.6445 z M 87.60102,352.23507 C 84.251688,350.31805 82.20142,348.07945 81.820911,345.92403 81.445315,343.79602 82.822867,339.39405 84.078903,338.7087 84.730169,338.35335 84.840571,338.89366 84.611907,341.31758 84.361652,343.97064 84.549086,344.63629 86.033359,346.35558 86.973796,347.44519 88.571354,348.97921 89.583562,349.76454 91.28668,351.086 91.703576,352.84031 90.432597,353.33762 90.136927,353.45342 88.862691,352.95721 87.60102,352.23507 z M 173.63547,351.20864 171.96469,348.72898 171.26354,350.97911 170.56238,353.22918 170.58404,350.37517 C 170.59558,348.80544 170.7683,346.49145 170.96751,345.23284 L 171.32982,342.94436 173.59555,346.25036 175.86126,349.5562 176.57968,347.31556 C 177.26069,345.19187 177.29218,345.28726 177.18141,349.1447 177.03802,354.14107 176.01354,354.73747 173.63591,351.20864 z M 167.45838,351.38851 C 166.65332,351.13384 166.45477,350.19578 166.45477,346.64603 L 166.45477,342.22088 168.46193,342.22088 C 169.56591,342.22088 170.46916,342.58784 170.46916,343.03631 170.46916,343.48482 169.82396,343.85177 169.03543,343.85177 168.24691,343.85177 167.60177,344.21876 167.60177,344.66719 167.60177,345.11571 167.98879,345.48258 168.46193,345.48258 168.93984,345.48258 169.32215,346.20743 169.32215,347.11347 169.32215,348.24812 168.93984,348.74436 168.06561,348.74436 166.84025,348.74436 166.83671,348.7732 167.92135,349.90082 169.17168,351.2008 168.96504,351.86494 167.45838,351.38851 z M 161.86722,350.27457 C 160.06656,349.25358 157.85254,346.33979 157.85254,344.99104 157.85254,342.79225 159.65912,341.40549 162.5234,341.40549 164.9458,341.40549 165.36219,341.6274 165.20097,342.83245 165.07006,343.81014 164.30341,344.38791 162.76644,344.66719 159.68714,345.22674 159.52526,346.86243 162.3803,348.56812 165.82299,350.62488 165.33692,352.2418 161.86722,350.27457 z M 151.95069,347.10863 C 151.74167,345.9721 151.2416,345.53834 150.30686,345.68275 148.63024,345.94186 148.4436,343.58553 150.11054,343.20357 152.46543,342.66411 152.92608,342.22876 152.21358,341.21568 151.84549,340.69218 151.54426,339.39073 151.54426,338.32359 151.54426,336.59195 151.35928,336.44114 149.82382,336.92068 148.50894,337.33132 148.10337,337.16961 148.10337,336.23477 148.10337,335.53872 148.84482,334.78008 149.82382,334.47436 150.77004,334.17884 151.54426,333.41584 151.54426,332.77873 151.54426,332.14166 151.81264,331.62031 152.14066,331.62031 153.24334,331.62031 156.98199,334.69195 158.13933,336.54877 L 159.28627,338.3891 157.13571,337.91001 C 155.95289,337.64644 154.98515,337.54646 154.98515,337.68774 154.98515,337.82905 155.37223,339.26191 155.84538,340.87199 157.01975,344.8684 157.00257,344.94504 154.47836,346.96218 152.27199,348.72543 152.24832,348.72676 151.95069,347.10863 z"
             style="fill:#000000" />
          <flowRoot
             transform="translate(-264.78411,201.66438)"
             style="font-size:13px;font-style:normal;font-variant:normal;font-weight:bold;font-stretch:normal;text-align:start;line-height:125%;letter-spacing:0px;word-spacing:0px;writing-mode:lr-tb;text-anchor:start;fill:#000000;fill-opacity:1;stroke:none;font-family:Comic Sans MS;-inkscape-font-specification:Comic Sans MS Bold"
             id="flowRoot3138"
             xml:space="preserve"><flowRegion
               id="flowRegion3140"><rect
                 style="font-size:13px;font-style:normal;font-variant:normal;font-weight:bold;font-stretch:normal;text-align:start;line-height:125%;writing-mode:lr-tb;text-anchor:start;font-family:Comic Sans MS;-inkscape-font-specification:Comic Sans MS Bold"
                 y="160.76118"
                 x="328.29959"
                 height="69.700523"
                 width="189.90868"
                 id="rect3142" /></flowRegion><flowPara
               id="flowPara3146">ADVENTURESCI.COM</flowPara></flowRoot>          <flowRoot
             transform="translate(38.703681,-28.145326)"
             style="font-size:8px;font-style:normal;font-weight:bold;line-height:125%;letter-spacing:0px;word-spacing:0px;fill:#000000;fill-opacity:1;stroke:none;font-family:Sans;-inkscape-font-specification:Sans Bold"
             id="flowRoot3150"
             xml:space="preserve"><flowRegion
               id="flowRegion3152"><rect
                 style="font-size:8px;font-weight:bold;-inkscape-font-specification:Sans Bold"
                 y="412.28915"
                 x="80.812202"
                 height="48.992397"
                 width="176.7767"
                 id="rect3154" /></flowRegion><flowPara
               id="flowPara3156">07:2014</flowPara></flowRoot>        </g>
      </g>
      <flowRoot
         transform="translate(-313.5971,-132.29872)"
         style="font-size:12px;font-style:normal;font-weight:normal;text-align:center;line-height:125%;letter-spacing:0px;word-spacing:0px;text-anchor:middle;fill:#000000;fill-opacity:1;stroke:none;font-family:Sans"
         id="flowRoot3291"
         xml:space="preserve"><flowRegion
           id="flowRegion3293"><rect
             style="font-size:12px;text-align:center;text-anchor:middle"
             y="155.71042"
             x="300.01532"
             height="100.0051"
             width="294.96454"
             id="rect3295" /></flowRegion><flowPara
           id="flowPara3297" /><flowPara
           id="flowPara3299">http://ianlee74.github.io/LumineaterBot/</flowPara><flowPara
           id="flowPara3940">Source             Code</flowPara></flowRoot>    </g>
    <rect
       style="fill:none;stroke:#000000;stroke-width:0.1885594;stroke-miterlimit:10;stroke-opacity:1;stroke-dasharray:none"
       id="rect5105"
       width="406.23999"
       height="399.09714"
       x="365.45145"
       y="95.668327" />
  </g>
</svg>
