<?xml version="1.0" encoding="UTF-8" standalone="no"?>
<!-- Created with Inkscape (http://www.inkscape.org/) -->

<svg
   xmlns:dc="http://purl.org/dc/elements/1.1/"
   xmlns:cc="http://creativecommons.org/ns#"
   xmlns:rdf="http://www.w3.org/1999/02/22-rdf-syntax-ns#"
   xmlns:svg="http://www.w3.org/2000/svg"
   xmlns="http://www.w3.org/2000/svg"
   xmlns:sodipodi="http://sodipodi.sourceforge.net/DTD/sodipodi-0.dtd"
   xmlns:inkscape="http://www.inkscape.org/namespaces/inkscape"
   width="1800"
   height="1080"
   id="svg5942"
   version="1.1"
   inkscape:version="0.48.4 r9939"
   sodipodi:docname="LumineaterBot Front Final Coder Dojo.svg"
   inkscape:export-filename="C:\Users\Gadget\Desktop\Laser Cutter Projects\Bowling Green\Coder Dojo\LumineaterBot Front Final Coder Dojo.png"
   inkscape:export-xdpi="90"
   inkscape:export-ydpi="90">
  <sodipodi:namedview
     id="base"
     pagecolor="#ffffff"
     bordercolor="#666666"
     borderopacity="1.0"
     inkscape:pageopacity="0.0"
     inkscape:pageshadow="2"
     inkscape:zoom="0.3878874"
     inkscape:cx="105.97585"
     inkscape:cy="922.54857"
     inkscape:document-units="px"
     inkscape:current-layer="layer1"
     showgrid="false"
     units="in"
     inkscape:showpageshadow="false"
     inkscape:window-width="1366"
     inkscape:window-height="706"
     inkscape:window-x="-8"
     inkscape:window-y="-8"
     inkscape:window-maximized="1" />
  <defs
     id="defs5944" />
  <metadata
     id="metadata5947">
    <rdf:RDF>
      <cc:Work
         rdf:about="">
        <dc:format>image/svg+xml</dc:format>
        <dc:type
           rdf:resource="http://purl.org/dc/dcmitype/StillImage" />
        <dc:title></dc:title>
      </cc:Work>
    </rdf:RDF>
  </metadata>
  <g
     transform="translate(0,27.64025)"
     id="layer1"
     inkscape:groupmode="layer"
     inkscape:label="Layer 1">
    <g
       transform="translate(36.27988,-670.38887)"
       id="g4529" />
    <g
       id="g6242"
       transform="translate(-4.707997,0)">
      <rect
         y="-26.062807"
         x="4.797997"
         height="396.70566"
         width="240.80014"
         id="rect5105"
         style="fill:none;stroke:#0000ff;stroke-width:0.18000001;stroke-miterlimit:10;stroke-opacity:1;stroke-dasharray:none" />
      <g
         id="g5047">
        <rect
           ry="21.446402"
           style="fill:none;stroke:#c31234;stroke-width:0.49573925;stroke-miterlimit:10;stroke-opacity:1;stroke-dasharray:none"
           id="rect3959-5"
           width="240.44914"
           height="389.19009"
           x="4.973496"
           y="-22.305025" />
        <rect
           transform="matrix(0,-1,1,0,0,0)"
           y="44.660412"
           x="-339.59995"
           height="161.06982"
           width="122.09344"
           id="rect3961-3"
           style="fill:none;stroke:#00c83a;stroke-width:0.15065154;stroke-miterlimit:10;stroke-opacity:1;stroke-dasharray:none" />
        <flowRoot
           transform="translate(-310.3496,-143.39509)"
           style="font-size:24px;font-style:normal;font-weight:normal;line-height:125%;letter-spacing:0px;word-spacing:0px;fill:#000000;fill-opacity:1;stroke:none;font-family:Sans"
           id="flowRoot4514-9"
           xml:space="preserve"><flowRegion
             id="flowRegion4516-9"><rect
               style="font-size:24px"
               y="416.32977"
               x="372.74628"
               height="70.710678"
               width="126.26907"
               id="rect4518-5" /></flowRegion><flowPara
             id="flowPara4520-9">Breadboard</flowPara></flowRoot>        <path
           sodipodi:type="arc"
           style="fill:none;stroke:#e386dd;stroke-width:0.7846303;stroke-miterlimit:10;stroke-opacity:1;stroke-dasharray:none"
           id="path5080-5"
           sodipodi:cx="786.90881"
           sodipodi:cy="230.46172"
           sodipodi:rx="35.355339"
           sodipodi:ry="37.375645"
           d="M 822.26415,230.46172 C 822.26415,251.10371 806.43503,267.83736 786.90881,267.83736 767.3826,267.83736 751.55347,251.10371 751.55347,230.46172 751.55347,209.81972 767.3826,193.08607 786.90881,193.08607 806.43503,193.08607 822.26415,209.81972 822.26415,230.46172 z"
           transform="matrix(0.13104072,0,0,0.12395486,-28.250028,325.78544)" />
        <path
           sodipodi:type="arc"
           style="fill:none;stroke:#e386dd;stroke-width:0.7846303;stroke-miterlimit:10;stroke-opacity:1;stroke-dasharray:none"
           id="path5084-0"
           sodipodi:cx="786.90881"
           sodipodi:cy="230.46172"
           sodipodi:rx="35.355339"
           sodipodi:ry="37.375645"
           d="M 822.26415,230.46172 C 822.26415,251.10371 806.43503,267.83736 786.90881,267.83736 767.3826,267.83736 751.55347,251.10371 751.55347,230.46172 751.55347,209.81972 767.3826,193.08607 786.90881,193.08607 806.43503,193.08607 822.26415,209.81972 822.26415,230.46172 z"
           transform="matrix(0.13104072,0,0,0.12395486,70.585812,325.78544)" />
        <path
           transform="matrix(0.13104072,0,0,0.12395486,-77.667958,325.78544)"
           d="M 822.26415,230.46172 C 822.26415,251.10371 806.43503,267.83736 786.90881,267.83736 767.3826,267.83736 751.55347,251.10371 751.55347,230.46172 751.55347,209.81972 767.3826,193.08607 786.90881,193.08607 806.43503,193.08607 822.26415,209.81972 822.26415,230.46172 z"
           sodipodi:ry="37.375645"
           sodipodi:rx="35.355339"
           sodipodi:cy="230.46172"
           sodipodi:cx="786.90881"
           id="path5086-1"
           style="fill:none;stroke:#e386dd;stroke-width:0.7846303;stroke-miterlimit:10;stroke-opacity:1;stroke-dasharray:none"
           sodipodi:type="arc" />
        <path
           sodipodi:type="arc"
           style="fill:none;stroke:#e386dd;stroke-width:0.7846303;stroke-miterlimit:10;stroke-opacity:1;stroke-dasharray:none"
           id="path5092-4"
           sodipodi:cx="786.90881"
           sodipodi:cy="230.46172"
           sodipodi:rx="35.355339"
           sodipodi:ry="37.375645"
           d="M 822.26415,230.46172 C 822.26415,251.10371 806.43503,267.83736 786.90881,267.83736 767.3826,267.83736 751.55347,251.10371 751.55347,230.46172 751.55347,209.81972 767.3826,193.08607 786.90881,193.08607 806.43503,193.08607 822.26415,209.81972 822.26415,230.46172 z"
           transform="matrix(0.13104072,0,0,0.12395486,120.0037,325.78544)" />
        <path
           transform="matrix(0.13104072,0,0,0.12395486,21.167892,325.78544)"
           d="M 822.26415,230.46172 C 822.26415,251.10371 806.43503,267.83736 786.90881,267.83736 767.3826,267.83736 751.55347,251.10371 751.55347,230.46172 751.55347,209.81972 767.3826,193.08607 786.90881,193.08607 806.43503,193.08607 822.26415,209.81972 822.26415,230.46172 z"
           sodipodi:ry="37.375645"
           sodipodi:rx="35.355339"
           sodipodi:cy="230.46172"
           sodipodi:cx="786.90881"
           id="path5094-5"
           style="fill:none;stroke:#e386dd;stroke-width:0.7846303;stroke-miterlimit:10;stroke-opacity:1;stroke-dasharray:none"
           sodipodi:type="arc" />
        <g
           id="g3113"
           transform="translate(-8.1420617,-28.784092)">
          <rect
             transform="scale(-1,-1)"
             y="-219.66339"
             x="-184.55321"
             height="205.18207"
             width="102.42616"
             id="rect3942-6"
             style="fill:none;stroke:#f8f603;stroke-width:0.32974279;stroke-miterlimit:10;stroke-opacity:1;stroke-dasharray:none" />
          <flowRoot
             transform="matrix(0,-1,1,0,-266.61259,313.16611)"
             style="font-size:36px;font-style:normal;font-variant:normal;font-weight:normal;font-stretch:normal;text-align:start;line-height:125%;letter-spacing:0px;word-spacing:0px;writing-mode:lr-tb;text-anchor:start;fill:#000000;fill-opacity:1;stroke:#000000;stroke-opacity:1;font-family:Sans;-inkscape-font-specification:Sans"
             id="flowRoot3944-2"
             xml:space="preserve"><flowRegion
               id="flowRegion3946-0"><rect
                 style="font-size:36px;font-style:normal;font-variant:normal;font-weight:normal;font-stretch:normal;text-align:start;line-height:125%;writing-mode:lr-tb;text-anchor:start;stroke:#000000;stroke-opacity:1;font-family:Sans;-inkscape-font-specification:Sans"
                 y="378.95413"
                 x="137.88582"
                 height="47.477169"
                 width="117.68277"
                 id="rect3948-3" /></flowRegion><flowPara
               id="flowPara3048">Battery</flowPara></flowRoot>        </g>
        <rect
           y="-185.58206"
           x="105.58576"
           height="6.9254642"
           width="15.783731"
           id="rect5359-2"
           style="fill:none;stroke:#f84803;stroke-width:0.16115002;stroke-miterlimit:10;stroke-opacity:1;stroke-dasharray:none"
           transform="matrix(0,1,-1,0,0,0)" />
        <rect
           style="fill:none;stroke:#f84803;stroke-width:0.16115002;stroke-miterlimit:10;stroke-opacity:1;stroke-dasharray:none"
           id="rect5361-6"
           width="15.783731"
           height="6.9254642"
           x="105.58576"
           y="-71.73954"
           transform="matrix(0,1,-1,0,0,0)" />
        <path
           sodipodi:type="arc"
           style="fill:none;stroke:#e386dd;stroke-width:0.7846303;stroke-miterlimit:10;stroke-opacity:1;stroke-dasharray:none"
           id="path5080-5-7"
           sodipodi:cx="786.90881"
           sodipodi:cy="230.46172"
           sodipodi:rx="35.355339"
           sodipodi:ry="37.375645"
           d="M 822.26415,230.46172 C 822.26415,251.10371 806.43503,267.83736 786.90881,267.83736 767.3826,267.83736 751.55347,251.10371 751.55347,230.46172 751.55347,209.81972 767.3826,193.08607 786.90881,193.08607 806.43503,193.08607 822.26415,209.81972 822.26415,230.46172 z"
           transform="matrix(0,-0.13104072,0.12395486,0,-3.1178074,408.05)" />
        <path
           transform="matrix(0,-0.13104072,0.12395486,0,-3.1178074,358.63208)"
           d="M 822.26415,230.46172 C 822.26415,251.10371 806.43503,267.83736 786.90881,267.83736 767.3826,267.83736 751.55347,251.10371 751.55347,230.46172 751.55347,209.81972 767.3826,193.08607 786.90881,193.08607 806.43503,193.08607 822.26415,209.81972 822.26415,230.46172 z"
           sodipodi:ry="37.375645"
           sodipodi:rx="35.355339"
           sodipodi:cy="230.46172"
           sodipodi:cx="786.90881"
           id="path5094-5-4"
           style="fill:none;stroke:#e386dd;stroke-width:0.7846303;stroke-miterlimit:10;stroke-opacity:1;stroke-dasharray:none"
           sodipodi:type="arc" />
        <path
           sodipodi:type="arc"
           style="fill:none;stroke:#e386dd;stroke-width:0.7846303;stroke-miterlimit:10;stroke-opacity:1;stroke-dasharray:none"
           id="path5080-5-7-8"
           sodipodi:cx="786.90881"
           sodipodi:cy="230.46172"
           sodipodi:rx="35.355339"
           sodipodi:ry="37.375645"
           d="M 822.26415,230.46172 C 822.26415,251.10371 806.43503,267.83736 786.90881,267.83736 767.3826,267.83736 751.55347,251.10371 751.55347,230.46172 751.55347,209.81972 767.3826,193.08607 786.90881,193.08607 806.43503,193.08607 822.26415,209.81972 822.26415,230.46172 z"
           transform="matrix(0,-0.13104072,0.12395486,0,194.52219,408.05)" />
        <path
           transform="matrix(0,-0.13104072,0.12395486,0,194.52219,358.63208)"
           d="M 822.26415,230.46172 C 822.26415,251.10371 806.43503,267.83736 786.90881,267.83736 767.3826,267.83736 751.55347,251.10371 751.55347,230.46172 751.55347,209.81972 767.3826,193.08607 786.90881,193.08607 806.43503,193.08607 822.26415,209.81972 822.26415,230.46172 z"
           sodipodi:ry="37.375645"
           sodipodi:rx="35.355339"
           sodipodi:cy="230.46172"
           sodipodi:cx="786.90881"
           id="path5094-5-4-5"
           style="fill:none;stroke:#e386dd;stroke-width:0.7846303;stroke-miterlimit:10;stroke-opacity:1;stroke-dasharray:none"
           sodipodi:type="arc" />
        <g
           id="g5022"
           transform="translate(5.3149658,0)">
          <flowRoot
             transform="matrix(0,-1,1.0321641,0,-209.13919,368.19849)"
             style="font-size:13px;font-style:normal;font-weight:normal;line-height:125%;letter-spacing:0px;word-spacing:0px;fill:#000000;fill-opacity:1;stroke:none;font-family:Sans"
             id="flowRoot3876-4-6"
             xml:space="preserve"><flowRegion
               id="flowRegion3878-1-7"><rect
                 y="386.53027"
                 x="291.93408"
                 height="34.345188"
                 width="57.07362"
                 id="rect3880-4-6" /></flowRegion><flowPara
               id="flowPara3882-3-7">Servo </flowPara><flowPara
               id="flowPara3884-9-7">Right</flowPara><flowPara
               id="flowPara3886-8-1" /></flowRoot>          <g
             id="g5611"
             transform="translate(-199.70522,-258.22307)">
            <rect
               y="359.80173"
               x="409.19647"
               height="6.9254642"
               width="15.783731"
               id="rect5363-5"
               style="fill:none;stroke:#f84803;stroke-width:0.16115002;stroke-miterlimit:10;stroke-opacity:1;stroke-dasharray:none" />
            <rect
               style="fill:none;stroke:#f84803;stroke-width:0.16115002;stroke-miterlimit:10;stroke-opacity:1;stroke-dasharray:none"
               id="rect5365-3"
               width="15.783731"
               height="6.9254642"
               x="409.19647"
               y="267.65891" />
          </g>
          <path
             inkscape:connector-curvature="0"
             id="rect3718"
             d="M 240.27307,1.734959 232.2442,1.734959 232.2442,19.203904 175.94983,19.203904 175.94983,98.736052 232.2442,98.736052 232.2442,116.205 240.27307,116.205 240.27307,98.736052 240.27307,19.203904 240.27307,1.734959 z"
             style="fill:none;stroke:#00d500;stroke-width:0.16494444;stroke-miterlimit:10;stroke-opacity:1;stroke-dasharray:none" />
        </g>
        <g
           id="g5034"
           transform="translate(-5.3149654,0)">
          <g
             id="g5607"
             transform="translate(-194.78958,-258.22307)">
            <rect
               y="267.65891"
               x="219.91075"
               height="6.9254642"
               width="15.783731"
               id="rect5367-2"
               style="fill:none;stroke:#f84803;stroke-width:0.16115002;stroke-miterlimit:10;stroke-opacity:1;stroke-dasharray:none" />
            <rect
               style="fill:none;stroke:#f84803;stroke-width:0.16115002;stroke-miterlimit:10;stroke-opacity:1;stroke-dasharray:none"
               id="rect5369-4"
               width="15.783731"
               height="6.9254642"
               x="219.91075"
               y="359.80173" />
          </g>
          <path
             inkscape:connector-curvature="0"
             id="rect3718-1"
             d="M 10.123064,1.734956 18.151964,1.734956 18.151964,19.203906 74.446364,19.203906 74.446364,98.736062 18.151964,98.736062 18.151964,116.205 10.123064,116.205 10.123064,98.736062 10.123064,19.203906 10.123064,1.734956 z"
             style="fill:none;stroke:#00d500;stroke-width:0.16494444;stroke-miterlimit:10;stroke-opacity:1;stroke-dasharray:none" />
          <flowRoot
             transform="matrix(0,1,-1.0321641,0,454.10135,-250.25854)"
             style="font-size:13px;font-style:normal;font-weight:normal;line-height:125%;letter-spacing:0px;word-spacing:0px;fill:#000000;fill-opacity:1;stroke:none;font-family:Sans"
             id="flowRoot3876-4-6-1"
             xml:space="preserve"><flowRegion
               id="flowRegion3878-1-7-5"><rect
                 y="386.53027"
                 x="291.93408"
                 height="34.345188"
                 width="57.07362"
                 id="rect3880-4-6-2" /></flowRegion><flowPara
               id="flowPara3882-3-7-7">Servo </flowPara><flowPara
               id="flowPara3884-9-7-6">Left</flowPara><flowPara
               id="flowPara3781" /><flowPara
               id="flowPara3886-8-1-1" /></flowRoot>        </g>
        <rect
           style="fill:none;stroke:#e386dd;stroke-width:0.16606788;stroke-miterlimit:10;stroke-opacity:1;stroke-dasharray:none"
           id="rect4703-8"
           width="9.9351082"
           height="9.7551918"
           x="298.21924"
           y="120.31773"
           transform="matrix(0,1,1,0,0,0)" />
        <rect
           style="fill:none;stroke:#e386dd;stroke-width:0.16604528;stroke-miterlimit:10;stroke-opacity:1;stroke-dasharray:none"
           id="rect4703-4-5"
           width="9.9323797"
           height="9.7552147"
           x="264.20349"
           y="120.31773"
           transform="matrix(0,1,1,0,0,0)" />
      </g>
    </g>
  </g>
</svg>
