<?xml version="1.0" encoding="UTF-8" standalone="no"?>
<!-- Created with Inkscape (http://www.inkscape.org/) -->

<svg
   xmlns:dc="http://purl.org/dc/elements/1.1/"
   xmlns:cc="http://creativecommons.org/ns#"
   xmlns:rdf="http://www.w3.org/1999/02/22-rdf-syntax-ns#"
   xmlns:svg="http://www.w3.org/2000/svg"
   xmlns="http://www.w3.org/2000/svg"
   xmlns:sodipodi="http://sodipodi.sourceforge.net/DTD/sodipodi-0.dtd"
   xmlns:inkscape="http://www.inkscape.org/namespaces/inkscape"
   width="1800"
   height="1080"
   id="svg5942"
   version="1.1"
   inkscape:version="0.48.4 r9939"
   sodipodi:docname="LumineaterBot BackFinal Coder Dojo.svg"
   inkscape:export-filename="C:\Users\Gadget\Desktop\Laser Cutter Projects\Bowling Green\Coder Dojo\LumineaterBot BackFinal Coder Dojo.png"
   inkscape:export-xdpi="90"
   inkscape:export-ydpi="90">
  <defs
     id="defs5944" />
  <sodipodi:namedview
     id="base"
     pagecolor="#ffffff"
     bordercolor="#666666"
     borderopacity="1.0"
     inkscape:pageopacity="0.0"
     inkscape:pageshadow="2"
     inkscape:zoom="0.42987605"
     inkscape:cx="60.840301"
     inkscape:cy="860.77618"
     inkscape:document-units="px"
     inkscape:current-layer="layer1"
     showgrid="false"
     units="in"
     inkscape:showpageshadow="false"
     inkscape:window-width="1366"
     inkscape:window-height="706"
     inkscape:window-x="-8"
     inkscape:window-y="-8"
     inkscape:window-maximized="1" />
  <metadata
     id="metadata5947">
    <rdf:RDF>
      <cc:Work
         rdf:about="">
        <dc:format>image/svg+xml</dc:format>
        <dc:type
           rdf:resource="http://purl.org/dc/dcmitype/StillImage" />
        <dc:title></dc:title>
      </cc:Work>
    </rdf:RDF>
  </metadata>
  <g
     inkscape:label="Layer 1"
     inkscape:groupmode="layer"
     id="layer1"
     transform="translate(0,27.64025)">
    <flowRoot
       xml:space="preserve"
       id="flowRoot6799"
       style="fill:black;stroke:none;stroke-opacity:1;stroke-width:1px;stroke-linejoin:miter;stroke-linecap:butt;fill-opacity:1;font-family:Sans;font-style:normal;font-weight:normal;font-size:13px;line-height:125%;letter-spacing:0px;word-spacing:0px"><flowRegion
         id="flowRegion6801"><rect
           id="rect6803"
           width="229.30463"
           height="203.04066"
           x="357.59399"
           y="138.53783" /></flowRegion><flowPara
         id="flowPara6805" /></flowRoot>    <g
       id="g5966"
       transform="translate(-6.7837597,-3.4633035)">
      <rect
         y="-14.978899"
         x="6.8737597"
         height="396.70566"
         width="240.80014"
         id="rect5105-3"
         style="fill:none;stroke:#0000ff;stroke-width:0.18000001;stroke-miterlimit:10;stroke-opacity:1;stroke-dasharray:none" />
      <g
         id="g5328">
        <g
           id="g5276">
          <rect
             style="fill:none;stroke:#00c83a;stroke-width:0.15065154;stroke-miterlimit:10;stroke-opacity:1;stroke-dasharray:none"
             id="rect3961-3"
             width="122.09344"
             height="161.06982"
             x="47.560234"
             y="-207.59694"
             transform="matrix(0,1,-1,0,0,0)" />
          <path
             transform="matrix(-0.13104072,0,0,-0.12395486,280.50739,29.75692)"
             d="M 822.26415,230.46172 C 822.26415,251.10371 806.43503,267.83736 786.90881,267.83736 767.3826,267.83736 751.55347,251.10371 751.55347,230.46172 751.55347,209.81972 767.3826,193.08607 786.90881,193.08607 806.43503,193.08607 822.26415,209.81972 822.26415,230.46172 z"
             sodipodi:ry="37.375645"
             sodipodi:rx="35.355339"
             sodipodi:cy="230.46172"
             sodipodi:cx="786.90881"
             id="path5080-5"
             style="fill:none;stroke:#e386dd;stroke-width:0.7846303;stroke-miterlimit:10;stroke-opacity:1;stroke-dasharray:none"
             sodipodi:type="arc" />
          <path
             transform="matrix(-0.13104072,0,0,-0.12395486,181.67155,29.75692)"
             d="M 822.26415,230.46172 C 822.26415,251.10371 806.43503,267.83736 786.90881,267.83736 767.3826,267.83736 751.55347,251.10371 751.55347,230.46172 751.55347,209.81972 767.3826,193.08607 786.90881,193.08607 806.43503,193.08607 822.26415,209.81972 822.26415,230.46172 z"
             sodipodi:ry="37.375645"
             sodipodi:rx="35.355339"
             sodipodi:cy="230.46172"
             sodipodi:cx="786.90881"
             id="path5084-0"
             style="fill:none;stroke:#e386dd;stroke-width:0.7846303;stroke-miterlimit:10;stroke-opacity:1;stroke-dasharray:none"
             sodipodi:type="arc" />
          <path
             sodipodi:type="arc"
             style="fill:none;stroke:#e386dd;stroke-width:0.7846303;stroke-miterlimit:10;stroke-opacity:1;stroke-dasharray:none"
             id="path5086-1"
             sodipodi:cx="786.90881"
             sodipodi:cy="230.46172"
             sodipodi:rx="35.355339"
             sodipodi:ry="37.375645"
             d="M 822.26415,230.46172 C 822.26415,251.10371 806.43503,267.83736 786.90881,267.83736 767.3826,267.83736 751.55347,251.10371 751.55347,230.46172 751.55347,209.81972 767.3826,193.08607 786.90881,193.08607 806.43503,193.08607 822.26415,209.81972 822.26415,230.46172 z"
             transform="matrix(-0.13104072,0,0,-0.12395486,329.92532,29.75692)" />
          <path
             transform="matrix(-0.13104072,0,0,-0.12395486,132.25366,29.75692)"
             d="M 822.26415,230.46172 C 822.26415,251.10371 806.43503,267.83736 786.90881,267.83736 767.3826,267.83736 751.55347,251.10371 751.55347,230.46172 751.55347,209.81972 767.3826,193.08607 786.90881,193.08607 806.43503,193.08607 822.26415,209.81972 822.26415,230.46172 z"
             sodipodi:ry="37.375645"
             sodipodi:rx="35.355339"
             sodipodi:cy="230.46172"
             sodipodi:cx="786.90881"
             id="path5092-4"
             style="fill:none;stroke:#e386dd;stroke-width:0.7846303;stroke-miterlimit:10;stroke-opacity:1;stroke-dasharray:none"
             sodipodi:type="arc" />
          <path
             sodipodi:type="arc"
             style="fill:none;stroke:#e386dd;stroke-width:0.7846303;stroke-miterlimit:10;stroke-opacity:1;stroke-dasharray:none"
             id="path5094-5"
             sodipodi:cx="786.90881"
             sodipodi:cy="230.46172"
             sodipodi:rx="35.355339"
             sodipodi:ry="37.375645"
             d="M 822.26415,230.46172 C 822.26415,251.10371 806.43503,267.83736 786.90881,267.83736 767.3826,267.83736 751.55347,251.10371 751.55347,230.46172 751.55347,209.81972 767.3826,193.08607 786.90881,193.08607 806.43503,193.08607 822.26415,209.81972 822.26415,230.46172 z"
             transform="matrix(-0.13104072,0,0,-0.12395486,231.08947,29.75692)" />
          <rect
             y="184.37665"
             x="82.029221"
             height="185.72945"
             width="90.060158"
             id="rect3942-6"
             style="fill:none;stroke:#f8f603;stroke-width:0.29417574;stroke-miterlimit:10;stroke-opacity:1;stroke-dasharray:none" />
          <g
             id="g5615"
             transform="matrix(-1,0,0,-1,446.95964,586.04348)">
            <rect
               y="-374.83679"
               x="336.08688"
               height="6.9254642"
               width="15.783731"
               id="rect5359-2"
               style="fill:none;stroke:#f84803;stroke-width:0.16115002;stroke-miterlimit:10;stroke-opacity:1;stroke-dasharray:none"
               transform="matrix(0,1,-1,0,0,0)" />
            <rect
               style="fill:none;stroke:#f84803;stroke-width:0.16115002;stroke-miterlimit:10;stroke-opacity:1;stroke-dasharray:none"
               id="rect5361-6"
               width="15.783731"
               height="6.9254642"
               x="336.08688"
               y="-271.97964"
               transform="matrix(0,1,-1,0,0,0)" />
          </g>
          <g
             id="g5611"
             transform="matrix(-1,0,0,-1,451.96258,613.76543)">
            <rect
               y="359.80173"
               x="409.19647"
               height="6.9254642"
               width="15.783731"
               id="rect5363-5"
               style="fill:none;stroke:#f84803;stroke-width:0.16115002;stroke-miterlimit:10;stroke-opacity:1;stroke-dasharray:none" />
            <rect
               style="fill:none;stroke:#f84803;stroke-width:0.16115002;stroke-miterlimit:10;stroke-opacity:1;stroke-dasharray:none"
               id="rect5365-3"
               width="15.783731"
               height="6.9254642"
               x="409.19647"
               y="267.65891" />
          </g>
          <g
             id="g5607"
             transform="matrix(-1,0,0,-1,447.04694,613.76543)">
            <rect
               y="267.65891"
               x="219.91075"
               height="6.9254642"
               width="15.783731"
               id="rect5367-2"
               style="fill:none;stroke:#f84803;stroke-width:0.16115002;stroke-miterlimit:10;stroke-opacity:1;stroke-dasharray:none" />
            <rect
               style="fill:none;stroke:#f84803;stroke-width:0.16115002;stroke-miterlimit:10;stroke-opacity:1;stroke-dasharray:none"
               id="rect5369-4"
               width="15.783731"
               height="6.9254642"
               x="219.91075"
               y="359.80173" />
          </g>
          <path
             transform="matrix(0,0.13104072,-0.12395486,0,255.37517,-52.50764)"
             d="M 822.26415,230.46172 C 822.26415,251.10371 806.43503,267.83736 786.90881,267.83736 767.3826,267.83736 751.55347,251.10371 751.55347,230.46172 751.55347,209.81972 767.3826,193.08607 786.90881,193.08607 806.43503,193.08607 822.26415,209.81972 822.26415,230.46172 z"
             sodipodi:ry="37.375645"
             sodipodi:rx="35.355339"
             sodipodi:cy="230.46172"
             sodipodi:cx="786.90881"
             id="path5080-5-7"
             style="fill:none;stroke:#e386dd;stroke-width:0.7846303;stroke-miterlimit:10;stroke-opacity:1;stroke-dasharray:none"
             sodipodi:type="arc" />
          <path
             sodipodi:type="arc"
             style="fill:none;stroke:#e386dd;stroke-width:0.7846303;stroke-miterlimit:10;stroke-opacity:1;stroke-dasharray:none"
             id="path5094-5-4"
             sodipodi:cx="786.90881"
             sodipodi:cy="230.46172"
             sodipodi:rx="35.355339"
             sodipodi:ry="37.375645"
             d="M 822.26415,230.46172 C 822.26415,251.10371 806.43503,267.83736 786.90881,267.83736 767.3826,267.83736 751.55347,251.10371 751.55347,230.46172 751.55347,209.81972 767.3826,193.08607 786.90881,193.08607 806.43503,193.08607 822.26415,209.81972 822.26415,230.46172 z"
             transform="matrix(0,0.13104072,-0.12395486,0,255.37517,-3.08972)" />
          <path
             transform="matrix(0,0.13104072,-0.12395486,0,57.73517,-52.50764)"
             d="M 822.26415,230.46172 C 822.26415,251.10371 806.43503,267.83736 786.90881,267.83736 767.3826,267.83736 751.55347,251.10371 751.55347,230.46172 751.55347,209.81972 767.3826,193.08607 786.90881,193.08607 806.43503,193.08607 822.26415,209.81972 822.26415,230.46172 z"
             sodipodi:ry="37.375645"
             sodipodi:rx="35.355339"
             sodipodi:cy="230.46172"
             sodipodi:cx="786.90881"
             id="path5080-5-7-8"
             style="fill:none;stroke:#e386dd;stroke-width:0.7846303;stroke-miterlimit:10;stroke-opacity:1;stroke-dasharray:none"
             sodipodi:type="arc" />
          <path
             sodipodi:type="arc"
             style="fill:none;stroke:#e386dd;stroke-width:0.7846303;stroke-miterlimit:10;stroke-opacity:1;stroke-dasharray:none"
             id="path5094-5-4-5"
             sodipodi:cx="786.90881"
             sodipodi:cy="230.46172"
             sodipodi:rx="35.355339"
             sodipodi:ry="37.375645"
             d="M 822.26415,230.46172 C 822.26415,251.10371 806.43503,267.83736 786.90881,267.83736 767.3826,267.83736 751.55347,251.10371 751.55347,230.46172 751.55347,209.81972 767.3826,193.08607 786.90881,193.08607 806.43503,193.08607 822.26415,209.81972 822.26415,230.46172 z"
             transform="matrix(0,0.13104072,-0.12395486,0,57.73517,-3.08972)" />
          <path
             inkscape:connector-curvature="0"
             id="rect3718"
             d="M 12.40788,353.8074 20.43675,353.8074 20.43675,336.33846 76.73112,336.33846 76.73112,256.80631 20.43675,256.80631 20.43675,239.33736 12.40788,239.33736 12.40788,256.80631 12.40788,336.33846 12.40788,353.8074 z"
             style="fill:none;stroke:#00d500;stroke-width:0.16494444;stroke-miterlimit:10;stroke-opacity:1;stroke-dasharray:none" />
          <path
             inkscape:connector-curvature="0"
             id="rect3718-1"
             d="M 242.13978,353.80741 234.11088,353.80741 234.11088,336.33846 177.81648,336.33846 177.81648,256.8063 234.11088,256.8063 234.11088,239.33736 242.13978,239.33736 242.13978,256.8063 242.13978,336.33846 242.13978,353.80741 z"
             style="fill:none;stroke:#00d500;stroke-width:0.16494444;stroke-miterlimit:10;stroke-opacity:1;stroke-dasharray:none" />
          <g
             id="g4823"
             transform="matrix(0,1,-1,0,452.89902,-23.38124)">
            <rect
               style="fill:none;stroke:#00d500;stroke-width:0.1645824;stroke-miterlimit:10;stroke-opacity:1;stroke-dasharray:none"
               id="rect4703-8"
               width="9.7566776"
               height="9.7566776"
               x="-80.705109"
               y="320.95865"
               transform="scale(-1,1)" />
            <rect
               style="fill:none;stroke:#00d500;stroke-width:0.1645824;stroke-miterlimit:10;stroke-opacity:1;stroke-dasharray:none"
               id="rect4703-4-5"
               width="9.7566776"
               height="9.7566776"
               x="-114.54369"
               y="320.95865"
               transform="scale(-1,1)" />
          </g>
          <g
             transform="matrix(1.2031416,0,0,1.4159085,5.12836,144.7685)"
             id="g5342">
            <path
               inkscape:connector-curvature="0"
               style="fill:#000000"
               d="M 89.815639,44.198981 C 89.70602,44.15077 88.871221,42.902591 83.932922,35.403332 81.879943,32.285697 78.595869,27.299303 76.599621,24.268771 74.489667,21.065627 68.949728,12.648301 64.374204,5.69358 60.745366,0.17779302 58.367491,-3.4377624 52.786515,-11.925485 51.22388,-14.301991 49.856089,-16.411204 49.747013,-16.612629 49.565257,-16.948217 49.548207,-17.158095 49.543198,-19.121694 49.53786,-21.214548 49.542888,-21.270157 49.758406,-21.505788 L 49.979068,-21.747044 53.889825,-21.747044 C 57.657996,-21.747044 57.808343,-21.739392 58.013582,-21.537028 58.130757,-21.421524 62.656165,-14.571247 68.070083,-6.3141941 74.308764,3.2007577 77.940393,8.6513309 77.986846,8.5694734 78.032951,8.4881964 78.054449,8.522265 78.044829,8.6613784 78.027264,8.9153308 79.119124,10.623942 79.244883,10.539288 79.290658,10.508449 79.328838,10.569146 79.32971,10.674159 79.330582,10.779161 79.628215,11.316269 79.991144,11.86772 80.354045,12.419171 84.459132,18.688298 89.113545,25.799114 93.767958,32.909929 98.161707,39.621663 98.877432,40.714085 99.593158,41.806496 100.2409,42.836047 100.31689,43.001968 100.49178,43.383899 100.40348,43.786274 100.08479,44.05935 99.848008,44.262263 99.686685,44.2685 94.888416,44.260427 92.164818,44.255846 89.88207,44.228194 89.815639,44.198981 z"
               id="path4121" />
            <path
               inkscape:connector-curvature="0"
               style="fill:#000000"
               d="M 11.126984,43.711034 C 10.994831,43.638189 10.831987,43.460786 10.765121,43.316817 10.668406,43.108585 10.643246,36.55073 10.642113,11.257473 10.640524,-24.016246 10.58416,-21.166463 11.28729,-21.363571 11.795626,-21.506073 18.763876,-21.524057 19.240987,-21.384089 19.47032,-21.316817 19.697609,-21.148944 19.836563,-20.944194 20.148185,-20.485018 30.396595,-4.6967488 42.025894,13.239751 43.587773,15.648722 45.268029,18.237111 45.759827,18.991728 46.251606,19.746346 47.356748,21.449617 48.21568,22.776782 L 49.777384,25.189805 49.802883,9.7245865 49.828362,-5.7406323 50.063227,-6.01297 C 50.404048,-6.4081677 50.852939,-6.3819514 51.27326,-5.9422998 51.542875,-5.6602841 57.520689,2.7740032 58.579396,4.3661715 L 58.886581,4.8281555 58.886581,23.963019 C 58.886581,37.76179 58.856597,43.169598 58.779016,43.355065 58.719861,43.496511 58.565232,43.664976 58.435385,43.729419 58.0838,43.903931 50.393353,43.888923 50.081518,43.713113 49.906147,43.614253 40.130605,28.729108 35.405712,21.366398 35.126332,20.931042 32.87597,17.464024 30.404917,13.661915 27.933864,9.8598054 24.557716,4.662488 22.902377,2.1123148 L 19.892646,-2.5243591 19.844207,20.318113 C 19.81742,32.955154 19.758071,43.244849 19.711375,43.349187 19.498454,43.824986 19.30206,43.846685 15.223043,43.845039 12.324926,43.843878 11.307596,43.81059 11.126984,43.711034 z"
               id="path4119" />
            <path
               inkscape:connector-curvature="0"
               style="fill:#000000"
               d="M 80.60285,12.500965 C 80.60285,12.355847 80.624842,12.29648 80.651726,12.369039 80.6786,12.441599 80.6786,12.560332 80.651726,12.632892 80.624842,12.705451 80.60285,12.646084 80.60285,12.500965 z"
               id="path4049" />
          </g>
          <flowRoot
             xml:space="preserve"
             id="flowRoot5317"
             style="font-size:15px;font-style:normal;font-weight:bold;line-height:125%;letter-spacing:0px;word-spacing:0px;fill:#000000;fill-opacity:1;stroke:none;font-family:Sans;-inkscape-font-specification:Sans Bold"
             transform="matrix(0.83416869,0,0,0.91879617,5.62462,109.21831)"><flowRegion
               id="flowRegion5319"><rect
                 id="rect5321"
                 width="142.85715"
                 height="32.142857"
                 x="15.714286"
                 y="110"
                 style="font-size:15px;font-weight:bold;-inkscape-font-specification:Sans Bold" /></flowRegion><flowPara
               id="flowPara5323">NASHMICRO.NET</flowPara></flowRoot>          <path
             inkscape:connector-curvature="0"
             d="M 173.99845,194.99322 C 171.06501,193.73042 165.16548,189.52752 162.35315,186.69695 L 159.59245,183.91834 159.59245,180.56858 159.59245,177.21882 157.53123,177.21882 C 156.39756,177.21882 154.72306,177.47812 153.81011,177.79505 151.77748,178.50067 150.53657,177.91146 150.31455,176.1353 150.20351,175.24688 150.50828,174.69237 151.42432,174.11617 152.5902,173.38279 152.78056,173.38051 153.90294,174.08651 154.5841,174.515 156.13256,174.85124 157.42455,174.85124 L 159.73046,174.85124 159.45632,172.30127 C 159.15163,169.46699 159.7233,167.97815 162.02267,165.61768 162.7895,164.83048 163.66637,163.16595 163.98942,161.8843 165.71918,155.02165 171.26039,149.9218 178.80337,148.25026 L 181.29472,147.69817 181.29472,145.43987 C 181.29472,144.19781 181.07276,143.04986 180.80147,142.88891 179.91703,142.36414 180.24101,139.87892 181.26229,139.35422 182.76838,138.58039 183.67528,138.77194 184.54608,140.04784 185.29064,141.13873 185.29155,141.32318 184.55745,142.39872 184.11932,143.04065 183.76088,144.50803 183.76088,145.65959 L 183.76088,147.7533 185.97206,148.07162 C 189.13163,148.52649 194.70884,151.34973 196.76577,153.53548 198.93429,155.83983 200.69528,159.14619 201.49928,162.4229 201.83499,163.791 202.32393,165.03748 202.58586,165.1929 202.84781,165.34832 203.71332,166.33849 204.50923,167.39329 205.71734,168.99436 205.95635,169.76867 205.95635,172.08117 L 205.95635,174.85124 207.52434,174.85124 C 208.38676,174.85124 209.83927,174.59194 210.75225,174.275 212.84955,173.54693 214.09471,174.2003 214.09471,176.02888 214.09471,177.95868 212.52835,178.82863 210.69647,177.91625 209.92635,177.53264 208.68555,177.21882 207.93918,177.21882 206.61431,177.21882 206.57641,177.29564 206.34058,180.45999 206.03699,184.53333 205.13286,185.78313 199.59961,189.77828 191.97859,195.28085 191.5499,195.4306 183.02102,195.57079 177.34205,195.66412 175.24507,195.52988 173.99845,194.99322 z M 194.44197,191.58693 199.0511,189.34624 199.0511,187.11621 199.0511,184.88616 196.46163,186.22435 C 188.66413,190.25392 176.1478,190.32461 169.05863,186.3791 L 166.93384,185.19653 167.0857,187.48177 167.23758,189.76697 170.93679,191.54901 C 175.21943,193.61207 179.37138,194.30691 185.68708,194.01755 189.45921,193.84472 190.24829,193.62565 194.44197,191.58693 z M 181.78795,178.63936 181.78795,169.16903 180.30825,169.16903 178.82854,169.16903 178.82854,178.32366 C 178.82854,183.35874 178.97651,187.62038 179.15737,187.79401 179.33821,187.96764 180.00408,188.10969 180.63707,188.10969 L 181.78795,188.10969 181.78795,178.63936 z M 186.79004,185.03185 C 186.96405,183.46924 187.13053,179.26087 187.15998,175.67989 L 187.21351,169.16903 185.48718,169.16903 183.76088,169.16903 183.76088,178.67083 183.76088,188.17259 185.11726,188.02275 C 186.38713,187.88247 186.49383,187.69168 186.79004,185.03185 z M 176.8556,178.87613 C 176.8556,173.75843 176.66389,170.11608 176.39449,170.11608 176.14087,170.11608 175.36402,170.32388 174.66818,170.57789 L 173.40298,171.03968 173.40298,178.82494 173.40298,186.61021 174.75938,187.08581 C 175.50538,187.34739 176.28223,187.57823 176.48569,187.59878 176.68916,187.61936 176.8556,183.69415 176.8556,178.87613 z M 192.14583,178.64825 C 192.14583,170.80595 192.13107,170.69625 191.03606,170.41453 190.42568,170.2575 189.75982,170.12611 189.55636,170.12256 189.3529,170.11897 189.18644,174.04701 189.18644,178.85149 L 189.18644,187.58691 190.66613,187.0917 192.14583,186.5965 192.14583,178.64825 z M 171.26112,172.16365 C 171.15289,172.05972 170.48073,172.22994 169.76746,172.54194 168.47379,173.10784 168.47063,173.12266 168.47063,178.70025 L 168.47063,184.29132 169.82704,184.97431 171.18342,185.65727 171.32071,179.00495 C 171.3962,175.34616 171.36938,172.26757 171.26112,172.16365 z M 196.13888,184.76284 C 197.56893,183.78524 197.57139,183.77474 197.57139,178.66159 197.57139,173.74015 197.52378,173.50967 196.35567,172.77486 195.68701,172.35427 194.91017,172.01015 194.62935,172.01015 194.30087,172.01015 194.11876,174.4589 194.11876,178.87613 194.11876,182.65241 194.25096,185.74211 194.41254,185.74211 194.57414,185.74211 195.35097,185.30144 196.13888,184.76284 z M 203.18426,181.95821 C 204.12614,179.69832 204.26159,173.42015 203.42036,171.01539 202.75259,169.10657 201.62212,167.7485 200.70099,167.7485 200.17076,167.7485 200.03757,169.39646 200.03757,175.95612 200.03757,180.47028 200.17772,184.29826 200.34903,184.46272 200.98573,185.07399 202.41006,183.81578 203.18426,181.95821 z M 165.01803,176.06296 C 165.01803,171.27645 164.81822,167.68584 164.54276,167.52241 163.78912,167.07524 162.17111,168.94012 161.60017,170.91399 160.9091,173.3032 160.92891,179.03561 161.63522,181.05467 162.30298,182.96349 163.43346,184.32156 164.35463,184.32156 164.88497,184.32156 165.01803,182.6653 165.01803,176.06296 z M 170.17599,171.07274 C 174.77345,168.96627 179.28412,168.09965 184.50074,168.32056 188.32628,168.48256 189.51928,168.75594 193.1323,170.2985 199.79206,173.14186 199.23517,173.3455 198.93401,168.17672 198.64492,163.21484 197.45126,159.56838 195.09301,156.44305 193.15095,153.8693 190.60508,152.32567 186.73818,151.37724 178.66613,149.39745 170.89897,153.19358 167.91654,160.57611 166.84426,163.23037 165.92979,172.48367 166.73976,172.48367 166.93597,172.48367 168.48229,171.84874 170.17599,171.07274 z M 172.90975,167.27497 C 172.36721,166.75412 171.92329,165.94441 171.92329,165.47562 171.92329,165.00686 171.68882,164.3982 171.40225,164.12312 171.0364,163.77186 171.26891,163.18061 172.18311,162.13758 L 173.485,160.65227 172.17879,160.17549 C 171.46037,159.91326 170.6651,159.69872 170.41148,159.69872 169.81734,159.69872 169.83007,159.5232 170.53144,158.0454 171.2217,156.59099 171.29771,156.61201 175.46781,159.4106 179.05457,161.8177 179.71185,163.04818 178.81091,165.66898 177.91262,168.28201 174.83202,169.12041 172.90975,167.27497 z M 177.84207,164.29183 C 177.84207,163.30714 176.762,162.53983 175.37591,162.53983 173.98983,162.53983 172.90975,163.30714 172.90975,164.29183 172.90975,164.71485 173.68122,164.90741 175.37591,164.90741 177.07061,164.90741 177.84207,164.71485 177.84207,164.29183 z M 187.8201,167.90524 C 186.73718,167.48688 185.32736,164.16726 185.85108,163.26885 186.10759,162.82881 186.18759,162.34411 186.02889,162.19173 185.75006,161.92407 192.97385,156.85763 193.63432,156.85763 193.92811,156.85763 195.10523,158.95959 195.10523,159.48424 195.10523,159.60221 194.89774,159.69872 194.64412,159.69872 194.39049,159.69872 193.58133,159.91833 192.84599,160.18673 L 191.509,160.6747 192.60021,161.78982 C 193.49879,162.7081 193.63013,163.21851 193.34429,164.68132 192.77801,167.57928 190.4672,168.92782 187.8201,167.90524 z M 192.14583,164.29183 C 192.14583,162.58798 188.94328,161.89387 187.49536,163.28391 186.1817,164.54505 186.61421,164.90741 189.43304,164.90741 191.3301,164.90741 192.14583,164.7223 192.14583,164.29183 z M 177.33324,138.0671 C 176.4603,135.46849 176.39684,135.41882 175.04082,136.27179 174.36421,136.69741 173.71889,136.95757 173.60679,136.84995 173.49468,136.74231 173.14972,135.39352 172.84023,133.85264 172.09995,130.16714 171.7451,129.87377 169.98536,131.49231 L 168.53415,132.82707 167.76505,130.28175 C 165.91155,124.14775 165.59046,122.53314 166.10554,121.93729 167.04746,120.84773 167.39419,121.32 168.26969,124.88522 169.4391,129.64733 169.61331,129.86277 171.164,128.46421 172.73076,127.05115 173.10265,127.40693 173.82667,131.01156 174.13618,132.55242 174.48115,133.90121 174.59325,134.00885 174.70536,134.11649 175.33938,133.86342 176.00216,133.4465 L 177.20722,132.68849 177.70532,136.1314 C 177.97928,138.025 178.14424,139.64185 178.07191,139.7244 177.99957,139.80696 177.66718,139.06115 177.33324,138.0671 z M 187.24826,138.68184 C 187.19053,137.19925 188.34545,131.76129 188.71806,131.76129 188.90922,131.76129 189.34196,132.08092 189.67966,132.47156 190.9398,133.92924 191.58731,133.21964 192.48128,129.40125 193.01591,127.11774 193.65593,125.51399 194.09747,125.35132 194.49957,125.20319 194.68116,125.22351 194.50101,125.39645 194.20803,125.67771 196.62385,127.97316 197.21285,127.97316 197.34424,127.97316 198.0653,125.82546 198.81519,123.20049 200.17235,118.44981 200.18311,118.43211 201.15165,119.36194 202.07738,120.25066 202.08738,120.40781 201.35746,122.59567 200.93552,123.86048 200.1201,126.45137 199.54545,128.35323 L 198.50062,131.81115 196.74237,130.32908 C 195.77535,129.51396 194.81779,129.02332 194.61446,129.23875 194.41115,129.45419 193.85959,131.17531 193.3888,133.06345 192.91801,134.9516 192.42451,136.49645 192.29217,136.49645 192.15979,136.49645 191.40594,136.05515 190.61693,135.51578 189.52194,134.76725 189.12585,134.68318 188.94364,135.16063 188.81231,135.50467 188.38496,136.6385 187.99395,137.68024 187.60295,138.72196 187.26737,139.17269 187.24826,138.68184 z"
             style="fill:#000000"
             id="path7129" />
          <path
             inkscape:connector-curvature="0"
             d="M 183.41844,207.45148 C 183.11404,207.27838 182.92883,205.65295 182.87451,202.67779 L 182.79215,198.16655 185.16149,198.16655 187.53085,198.16655 187.6534,199.52915 C 187.75865,200.69929 187.66105,200.89174 186.96233,200.89174 186.35774,200.89174 186.14872,200.65838 186.14872,199.98335 186.14872,199.25663 185.95128,199.07494 185.16149,199.07494 184.21329,199.07494 184.17445,199.16471 184.17861,201.34593 184.181,202.59497 184.29311,204.23009 184.42772,204.97951 184.6303,206.10727 184.83374,206.34211 185.60805,206.34211 186.38926,206.34211 186.54361,206.15788 186.54361,205.22539 186.54361,204.35819 186.69802,204.13561 187.23467,204.22918 188.09835,204.37979 188.46361,206.99059 187.65358,207.2235 186.50154,207.55477 183.85094,207.69745 183.41844,207.45148 z M 175.16869,207.12025 C 174.80009,206.90513 174.72333,206.31157 174.89922,205.03649 175.05091,203.93701 174.9079,202.23467 174.52615,200.59547 173.76909,197.3447 173.75447,197.62151 174.68329,197.62151 175.31652,197.62151 175.50771,197.95611 175.72139,199.43831 175.86545,200.43755 176.1014,201.25509 176.24572,201.25509 176.39006,201.25509 176.78255,200.56017 177.11797,199.71083 177.54417,198.63155 177.98491,198.13159 178.58169,198.05044 179.05134,197.98659 179.43558,198.01414 179.43558,198.11167 179.43558,198.20921 178.82426,199.46276 178.07711,200.89733 177.32993,202.33192 176.59866,204.38913 176.45204,205.46892 176.1785,207.4834 176.05758,207.63901 175.16869,207.12025 z M 190.15181,206.28271 C 189.44936,204.56471 188.41519,198.29754 188.77894,197.96286 189.26825,197.51261 192.99013,196.88262 193.32575,197.19325 193.54923,197.40006 195.2287,204.89462 195.23059,205.69345 195.23158,206.11426 193.96942,206.60273 192.17401,206.87638 190.65701,207.10762 190.46619,207.05158 190.15181,206.28271 z M 193.38727,205.34287 C 193.48468,205.193 193.26968,203.6004 192.90948,201.80378 192.25653,198.54694 191.80062,197.92335 190.59634,198.63975 190.21201,198.86838 190.24704,199.64328 190.76053,202.27288 191.35789,205.33193 191.48944,205.61539 192.3117,205.61539 192.80585,205.61539 193.28985,205.49275 193.38727,205.34287 z M 168.97099,206.25437 C 168.10223,206.04982 167.32732,205.83152 167.24897,205.76925 167.03644,205.60034 169.20417,197.12345 169.54641,196.78517 170.03456,196.30261 173.51223,197.27486 173.51223,197.89388 173.51223,198.31833 173.19946,198.39661 172.13733,198.23802 170.61311,198.01043 170.5575,198.05092 170.18242,199.66178 169.93962,200.70455 170.01305,200.81099 171.11522,201.01382 171.99734,201.17617 172.24866,201.38484 172.07205,201.80833 171.89979,202.22137 171.52878,202.32128 170.75096,202.16409 169.75317,201.96244 169.63797,202.05945 169.26355,203.41674 168.86163,204.87374 168.86972,204.89083 170.09902,205.18394 170.78173,205.34672 171.34032,205.70116 171.34032,205.97157 171.34032,206.63483 170.84031,206.69451 168.97099,206.25437 z M 195.90943,201.51122 C 195.10203,199.25393 194.44141,197.21004 194.44141,196.96926 194.44141,196.02486 195.5198,196.6037 197.49934,198.61067 L 199.57005,200.71006 198.78274,198.56387 C 197.82368,195.9495 197.79811,195.35275 198.65167,195.50556 199.10203,195.58619 199.78337,196.93015 200.82356,199.7896 201.65718,202.08118 202.33923,204.08421 202.33923,204.24074 202.33923,204.39725 202.02592,204.52532 201.64297,204.52532 201.26003,204.52532 200.17498,203.61609 199.23175,202.50482 198.28851,201.39355 197.44632,200.54917 197.36018,200.62843 197.27407,200.70767 197.55947,201.72424 197.99442,202.88746 198.96024,205.47051 198.96485,205.61539 198.08132,205.61539 197.53425,205.61539 197.05038,204.70104 195.90943,201.51122 z M 164.14109,204.95679 C 163.76785,204.73862 163.8417,204.22053 164.45916,202.72526 165.10474,201.16187 165.16168,200.71752 164.74781,200.47188 163.76549,199.88888 163.13032,200.35558 162.35771,202.2281 161.82365,203.52243 161.40972,204.04883 161.03113,203.91515 160.72847,203.80829 160.48084,203.49886 160.48084,203.22754 160.48084,202.18872 163.75822,194.71464 164.21374,194.71464 165.08638,194.71464 165.13874,195.10153 164.51069,196.9087 163.838,198.84426 163.84504,198.87555 165.029,199.20917 165.70297,199.39907 165.93363,199.15412 166.52609,197.6192 166.91128,196.62124 167.35242,195.80723 167.50639,195.81029 168.68079,195.83365 168.58869,196.58217 166.89236,200.8009 165.90799,203.24902 164.99562,205.24952 164.86489,205.24648 164.73415,205.24342 164.40844,205.11304 164.14109,204.95679 z M 203.61397,199.41578 C 201.98492,196.15944 201.6921,195.7842 200.91927,195.96268 200.35419,196.09318 199.97166,195.96973 199.82091,195.60823 199.64953,195.19731 200.32973,194.73152 202.44525,193.81104 204.01586,193.12768 206.04936,192.13918 206.96414,191.61441 L 208.62736,190.66029 210.06276,192.72499 C 211.1041,194.22288 211.37923,194.89908 211.06504,195.18819 210.40379,195.79662 210.49721,195.94014 212.41535,197.26259 213.98235,198.34294 214.12851,198.5568 213.61979,199.02491 213.11107,199.49301 212.77484,199.34858 210.84915,197.83477 208.52058,196.00428 208.29686,195.64645 209.26684,195.30396 209.90358,195.07912 209.74239,194.5846 208.55643,193.12438 208.09762,192.55948 207.85693,192.51424 207.15341,192.86069 206.32051,193.27084 206.34925,193.34629 208.65051,196.79219 210.41047,199.42752 210.8907,200.42317 210.57218,200.77632 210.33864,201.03525 210.01829,201.17357 209.8603,201.08374 209.70232,200.9939 208.62482,199.48323 207.46587,197.72668 204.92859,193.88114 204.11189,192.79481 204.45015,193.71542 204.57865,194.06515 204.55608,194.35379 204.40002,194.35686 204.24394,194.35991 203.87293,194.50424 203.57555,194.67758 203.14264,194.92994 203.39846,195.69899 204.85896,198.53593 205.86219,200.48469 206.68302,202.20324 206.68302,202.35494 206.68302,202.50665 206.4037,202.72941 206.06231,202.84994 205.583,203.01919 205.0253,202.23695 203.61397,199.41578 z M 156.52283,201.97664 C 156.05312,201.70951 156.29893,201.00536 157.92062,197.97257 159.83024,194.40132 159.86567,194.27735 159.11988,193.77555 158.57193,193.40691 158.47318,193.14642 158.77578,192.86799 159.07836,192.58957 159.78813,192.75166 161.24888,193.43277 163.31637,194.39678 163.71828,195.25969 162.09979,195.25969 161.39474,195.25969 160.81488,195.95345 159.15724,198.78021 157.54628,201.52737 156.96756,202.22956 156.52283,201.97664 z M 148.71091,197.5894 147.05119,196.46629 147.92652,195.31795 C 150.13765,192.41718 153.02694,188.90092 153.19937,188.90092 153.61467,188.90092 156.53193,190.83289 156.53193,191.10791 156.53193,191.76843 155.64445,191.83247 154.66604,191.24258 153.64283,190.62568 153.60857,190.63308 152.70362,191.66545 L 151.78258,192.71618 152.77787,193.45855 C 153.52374,194.01489 153.66019,194.30488 153.32232,194.61575 152.98446,194.92663 152.63434,194.88761 151.92515,194.46005 151.40467,194.14625 150.92858,193.95253 150.86717,194.02955 150.80577,194.10659 150.37431,194.63285 149.90837,195.19903 L 149.0612,196.22843 150.13106,197.08138 C 150.88318,197.68101 151.07763,198.04988 150.78576,198.32342 150.49203,198.59874 149.88532,198.38411 148.71091,197.5894 z M 213.86757,195.49119 C 210.78516,192.08305 209.84215,190.86859 209.84215,190.30698 209.84215,189.82623 212.80533,187.4475 213.40421,187.4475 213.64693,187.4475 218.76097,193.19004 219.42549,194.20878 219.73764,194.68735 218.87629,195.60816 216.87454,196.93582 L 215.81169,197.64073 213.86757,195.49119 z M 217.08845,195.27231 C 217.54462,194.95431 217.70124,194.58332 217.50541,194.28464 216.85613,193.29431 213.24419,189.26428 213.00589,189.26428 212.86918,189.26428 212.42408,189.4885 212.01677,189.76256 211.3167,190.23359 211.40434,190.41149 213.61957,193.01606 214.90843,194.53143 216.05181,195.77361 216.16039,195.77645 216.26899,195.77929 216.6866,195.55242 217.08845,195.27231 z M 145.11429,194.93421 C 144.64967,194.41912 144.72622,194.00601 145.66133,191.9815 146.80387,189.50786 146.98302,189.34818 147.79283,190.08184 148.19514,190.44632 148.48376,190.33465 149.25393,189.51654 150.37493,188.32576 150.42179,188.05875 149.61751,187.44455 149.11403,187.06008 148.53621,187.46292 145.90261,190.03441 143.45611,192.42318 142.67848,192.98588 142.29485,192.64503 141.90927,192.30243 142.2286,191.76426 143.80402,190.10153 144.90305,188.94158 146.52828,187.34618 147.41564,186.55619 L 149.02902,185.11986 150.60856,186.5391 C 151.47734,187.31968 152.18813,188.13638 152.18813,188.35398 152.18813,188.57157 151.41967,189.44359 150.48044,190.29177 149.3168,191.3426 148.56368,191.7601 148.11658,191.60224 147.65912,191.44072 147.35261,191.62931 147.10444,192.22504 145.75483,195.46454 145.68201,195.56367 145.11429,194.93421 z M 217.54545,189.99369 C 214.40219,187.08799 214.07647,186.66579 214.60368,186.18067 215.13088,185.69557 215.54313,185.95598 218.32689,188.53256 L 221.45727,191.42996 222.36808,190.64263 C 223.07,190.03586 223.38619,189.95402 223.74675,190.2858 224.10733,190.61757 223.90723,191.00814 222.87429,191.98876 222.13708,192.68862 221.43182,193.26121 221.307,193.26121 221.18219,193.26121 219.48949,191.79082 217.54545,189.99369 z M 138.59518,188.83551 C 137.81811,188.00016 137.1823,187.21007 137.1823,187.07973 137.1823,186.67365 144.35841,181.27041 144.89776,181.27041 145.63162,181.27041 147.96222,184.0972 147.71572,184.68831 147.45116,185.32268 140.97465,190.35436 140.42268,190.35436 140.19465,190.35436 139.37227,189.67089 138.59518,188.83551 z M 146.22946,184.30958 C 146.31862,184.23927 146.07258,183.85739 145.68269,183.46099 144.97905,182.74555 144.96329,182.74797 143.54612,183.78805 142.76088,184.36432 141.40763,185.40545 140.53887,186.10162 138.98216,187.34908 138.96993,187.37823 139.69417,188.11646 140.48887,188.92653 140.0539,189.17993 146.22946,184.30958 z M 226.625,185.09423 C 225.97343,184.60132 223.95923,183.77508 222.14901,183.25817 219.59162,182.52791 218.90919,182.19487 219.08862,181.76466 219.21561,181.46014 219.31953,181.1514 219.31953,181.07859 219.31953,181.00577 220.29826,181.25604 221.4945,181.63474 223.49294,182.2674 223.64013,182.27286 223.30809,181.70195 223.1093,181.36021 222.57482,180.77095 222.12034,180.39247 221.26191,179.67764 221.02638,178.55863 221.65865,178.19904 221.85924,178.08498 222.93878,179.12442 224.05764,180.50891 225.17649,181.89339 226.77765,183.46341 227.61578,183.99785 228.5557,184.59722 229.05779,185.16587 228.92602,185.48182 228.6175,186.22162 227.97138,186.11278 226.625,185.09423 z M 134.07928,183.19237 C 133.75566,182.66027 134.36529,182.15253 138.04273,179.89141 140.43297,178.42175 142.42407,177.27236 142.46739,177.33722 142.51072,177.40209 143.01979,178.13591 143.59866,178.96794 144.47227,180.22363 144.55918,180.55097 144.11,180.89398 143.68324,181.21988 143.42142,181.0776 142.87143,180.2209 142.14779,179.0937 141.90098,179.09866 140.19046,180.27482 139.48864,180.75739 139.48391,180.83751 140.10591,181.711 140.69319,182.53573 140.69846,182.65945 140.15459,182.8515 139.78872,182.98069 139.3499,182.78009 139.05821,182.35033 138.42084,181.41123 138.22851,181.43651 136.18933,182.72749 134.61327,183.72526 134.42819,183.76602 134.07928,183.19237 z M 226.52628,179.89455 C 224.30008,178.75664 222.47865,177.60788 222.47865,177.34174 222.47865,176.78713 224.41307,173.63989 224.75394,173.63989 225.17212,173.63989 232.54294,177.33211 233.08776,177.8145 233.54188,178.21658 233.45393,178.58491 232.53137,180.14461 231.92871,181.16348 231.24173,181.98954 231.00475,181.9803 230.76778,181.97103 228.75248,181.03244 226.52628,179.89455 z M 231.37631,179.41704 C 231.70246,178.47146 231.62949,178.41191 228.05653,176.70789 225.25888,175.37364 225.12289,175.34588 224.60124,176.00232 224.30257,176.37815 224.06164,176.77704 224.06583,176.88872 224.07606,177.16107 230.05322,180.13149 230.64601,180.15881 230.90288,180.17065 231.23149,179.83685 231.37631,179.41704 z M 131.70211,179.38905 C 130.7905,177.92062 130.78475,177.8617 131.50467,177.36305 132.4561,176.70408 139.99465,173.19503 140.13686,173.34494 140.33359,173.55228 141.92098,176.51523 141.92098,176.67508 141.92098,176.76158 141.65584,176.92599 141.33177,177.0404 140.94804,177.1759 140.53296,176.87553 140.14161,176.17918 L 139.54067,175.1099 138.18415,175.70511 C 137.02795,176.21245 136.88746,176.4032 137.23282,176.99698 137.65936,177.73033 137.44642,178.7269 136.86319,178.7269 136.67405,178.7269 136.31728,178.31894 136.07035,177.82028 135.62318,176.91721 135.61589,176.9161 134.20602,177.53474 132.74712,178.17488 132.76338,178.11154 133.50271,180.27118 133.93293,181.5279 132.6353,180.89217 131.70211,179.38905 z M 129.80737,175.37404 C 129.37819,174.84957 128.05701,171.74136 128.20528,171.60495 128.42238,171.40518 137.70188,168.18314 137.79992,168.27349 137.85823,168.32723 138.27288,169.22787 138.72137,170.27492 L 139.53677,172.17867 138.48933,172.81019 C 137.91323,173.15751 136.76152,173.4417 135.92997,173.4417 134.97775,173.4417 134.41806,173.61109 134.41806,173.89927 134.41806,174.31672 133.02857,175.00622 130.98413,175.60329 130.52255,175.7381 130.02615,175.6414 129.80737,175.37404 z M 133.13246,173.20283 C 133.71324,172.75932 133.73661,172.54303 133.27608,171.8742 132.9924,171.46224 132.69854,171.45927 131.50512,171.85636 130.16007,172.3039 129.66209,173.13952 130.35854,173.78034 130.69987,174.09442 132.43909,173.73233 133.13246,173.20283 z M 137.57718,171.08228 C 137.57718,170.13471 137.06348,169.95556 135.6481,170.40957 134.37206,170.81888 134.10267,171.38753 134.85628,172.08098 135.51109,172.68352 137.57718,171.92515 137.57718,171.08228 z M 229.14194,174.30588 C 225.58914,173.05577 224.97558,172.72438 225.14037,172.14457 225.24742,171.76792 225.36874,171.45975 225.40998,171.45975 225.45122,171.45975 227.33555,172.12335 229.5974,172.93444 233.441,174.31272 233.74286,174.36756 234.21505,173.77338 234.49291,173.42371 234.72025,173.02199 234.72025,172.88064 234.72025,172.73928 232.89882,171.97558 230.67262,171.18349 228.08993,170.26459 226.57878,169.52794 226.49732,169.14812 226.42509,168.81138 226.62409,168.55288 226.95553,168.55288 227.97449,168.55288 235.9629,171.53932 236.15111,171.99063 236.48198,172.78403 234.80177,175.82148 234.04323,175.80122 233.65542,175.79085 231.44985,175.11797 229.14194,174.30588 z M 214.64318,155.83536 C 214.64318,155.33574 214.73282,155.13135 214.84236,155.38115 214.95192,155.63095 214.95192,156.03974 214.84236,156.28955 214.73282,156.53935 214.64318,156.33497 214.64318,155.83536 z M 214.64318,152.56513 C 214.64318,152.06551 214.73282,151.86112 214.84236,152.11093 214.95192,152.36073 214.95192,152.76952 214.84236,153.01932 214.73282,153.26913 214.64318,153.06476 214.64318,152.56513 z M 216.1912,127.34591 C 215.63446,126.72863 215.93058,126.03999 216.75273,126.03999 217.60777,126.03999 217.89169,126.78282 217.25915,127.36485 216.75673,127.82716 216.62313,127.82477 216.1912,127.34591 z M 145.54667,123.16163 C 143.76975,121.3787 142.31588,119.67375 142.31588,119.37285 142.31588,118.78393 144.9781,116.59268 145.69358,116.59268 145.93202,116.59268 146.53957,116.99666 147.04369,117.49043 147.81339,118.2443 147.87819,118.47915 147.44814,118.95597 146.98845,119.46561 146.84783,119.44753 146.07482,118.77929 145.24689,118.06361 145.18871,118.06016 144.56942,118.68983 143.96419,119.3052 144.08808,119.50864 146.61788,122.05346 148.99601,124.44572 149.38635,124.70423 149.95955,124.26649 150.76877,123.64853 150.78693,122.99496 150.01138,122.4027 149.5484,122.04916 149.51775,121.83178 149.87502,121.43569 150.2614,121.0073 150.51742,121.0848 151.45945,121.91523 152.07742,122.46 152.58303,123.08723 152.58303,123.30904 152.58303,123.8115 149.7349,126.40335 149.18276,126.40335 148.95985,126.40335 147.3236,124.94457 145.54667,123.16163 z M 214.22943,125.54316 C 213.88805,125.16467 213.92754,124.93467 214.39526,124.57748 215.15002,124.00113 215.99225,124.60886 215.63289,125.47054 215.3404,126.1719 214.82076,126.1988 214.22943,125.54316 z M 212.64756,124.24673 C 212.34401,124.07405 212.2054,123.67186 212.339,123.35147 212.61599,122.6873 212.94884,122.63551 213.79106,123.12556 214.31757,123.43191 214.31757,123.53077 213.79106,124.01525 213.41305,124.36307 212.99928,124.44684 212.64756,124.24673 z M 210.65188,122.61021 C 210.23576,122.14885 210.39002,121.75222 211.57687,120.23214 212.36029,119.22875 213.00127,118.3074 213.00127,118.18468 213.00127,118.06196 212.28995,118.55286 211.42058,119.27559 208.92143,121.35313 208.54825,121.06666 209.83639,118.05958 210.26759,117.05294 210.56369,116.22932 210.49436,116.22932 210.42503,116.22932 209.6952,117.12864 208.87247,118.2278 207.31544,120.30803 207.1889,120.39549 206.4021,119.93541 206.06639,119.7391 206.81955,118.46758 208.92779,115.67152 210.58002,113.48023 211.99047,111.62319 212.06213,111.54473 212.13379,111.46629 212.44923,111.59824 212.76311,111.83793 213.25601,112.21434 213.20347,112.62641 212.37777,114.86023 211.85194,116.28279 211.42171,117.50722 211.42171,117.58121 211.42171,117.65521 212.52768,116.89234 213.87942,115.88591 215.94328,114.34932 216.42262,114.13474 216.8705,114.54685 217.31838,114.95899 216.94578,115.64263 214.54543,118.81287 210.97587,123.52729 211.24356,123.26621 210.65188,122.61021 z M 150.83153,118.97479 C 149.40143,117.08738 148.13964,115.32325 148.02755,115.05447 147.817,114.54958 151.00778,112.22932 151.90352,112.23598 152.51774,112.24052 157.72162,119.0549 157.70162,119.82847 157.68523,120.46207 154.88534,122.40641 153.98932,122.40641 153.68264,122.40641 152.26163,120.86218 150.83153,118.97479 z M 155.88019,119.95136 C 155.9803,119.80229 155.03713,118.32815 153.78424,116.67548 L 151.50624,113.67063 150.61769,114.33267 149.72915,114.99472 152.01496,117.95261 C 153.93222,120.43361 154.41343,120.85504 154.99947,120.56643 155.38376,120.37719 155.78007,120.1004 155.88019,119.95136 z M 156.64269,114.98962 C 154.64639,111.30192 154.31236,110.44047 154.81056,110.26456 155.20075,110.12678 156.34863,110.79975 158.00277,112.13603 L 160.5857,114.22264 159.16989,111.63572 C 158.3912,110.21292 157.86411,108.94755 157.9986,108.82381 158.73949,108.14208 159.51817,109.01746 161.64725,112.92561 163.62645,116.55855 163.90273,117.28831 163.3702,117.47634 162.70695,117.71053 162.18715,117.38611 159.35463,114.97002 L 157.63608,113.50414 159.09122,116.18926 C 160.23917,118.30757 160.43522,118.93919 160.01997,119.1814 159.73047,119.35027 159.40147,119.49093 159.28885,119.49399 159.17624,119.49706 157.98546,117.47008 156.64269,114.98962 z M 203.03417,118.30255 C 202.22182,117.86173 201.55544,117.37572 201.55332,117.22251 201.54999,116.98251 205.80084,108.96828 206.08809,108.67302 206.33141,108.42293 209.84215,110.23353 209.84215,110.60913 209.84215,111.38437 209.34687,111.47657 208.17583,110.91934 207.53161,110.61281 206.95478,110.41495 206.89399,110.47964 206.8332,110.54435 206.48902,111.12997 206.12917,111.78106 205.48377,112.94869 205.48848,112.97054 206.47383,113.38364 207.43497,113.7866 207.74476,114.40454 207.22531,114.88253 207.08917,115.00778 206.49536,114.88074 205.90573,114.60015 204.86782,114.10629 204.81281,114.13028 204.17878,115.3537 203.30754,117.03482 203.33449,117.15906 204.68201,117.67264 205.41636,117.95253 205.76214,118.30105 205.62699,118.62511 205.33805,119.31797 204.77673,119.24815 203.03417,118.30255 z M 199.30806,116.72277 C 198.97075,116.59733 199.05285,115.99069 199.60809,114.50569 200.20821,112.90071 200.26558,112.3989 199.87502,112.17075 198.70718,111.48857 198.13181,111.89197 197.45504,113.86751 196.75475,115.91167 196.59023,116.07196 195.7164,115.56165 195.33043,115.33626 195.61814,114.23982 196.96097,110.81873 197.92161,108.37135 198.78847,106.29455 198.88733,106.20359 198.98618,106.11263 199.34482,106.13627 199.68429,106.25614 200.23659,106.45114 200.22508,106.67849 199.57499,108.41713 198.93994,110.11558 198.92313,110.38654 199.44148,110.56957 200.69386,111.01178 201.11237,110.71997 201.7469,108.96217 202.42091,107.09496 202.57978,106.95094 203.42243,107.44334 203.79387,107.6604 203.49325,108.82692 202.18692,112.2376 200.48875,116.6713 200.23454,117.06736 199.30806,116.72277 z M 164.60593,112.38301 C 163.24242,108.86155 163.04035,108.55009 162.21341,108.69556 161.45636,108.82871 160.87573,108.39402 160.87573,107.69405 160.87573,107.43829 165.56854,106.1342 165.78202,106.33065 166.25887,106.76943 165.97817,107.43148 165.23994,107.6091 164.50654,107.78558 164.53639,107.96164 165.87888,111.37591 167.83923,116.36153 167.81173,116.22932 166.8881,116.22932 166.23791,116.22932 165.82718,115.5371 164.60593,112.38301 z M 169.77273,114.68507 C 169.14119,112.90006 167.68018,105.82985 167.9037,105.64039 168.42173,105.20128 172.12822,104.64504 172.46991,104.95514 172.65678,105.12475 173.05331,106.21836 173.35108,107.38537 173.83543,109.28364 173.82533,109.55341 173.25534,109.9457 172.68303,110.33956 172.74405,110.56463 173.855,112.15765 175.30329,114.23441 175.341,114.41254 174.33245,114.41254 173.83644,114.41254 173.08323,113.69192 172.16054,112.33462 170.60491,110.04617 170.42056,109.32553 171.3908,109.32553 171.92498,109.32553 171.98865,109.06686 171.7676,107.7949 171.44805,105.95612 171.42071,105.92519 170.38287,106.22828 169.37414,106.52288 169.37339,106.49148 170.49947,111.04559 171.00518,113.09076 171.32722,114.84851 171.21511,114.95168 170.83087,115.30524 169.93346,115.13935 169.77273,114.68507 z M 191.68733,113.98498 C 191.69289,113.52067 192.04374,111.75095 192.46696,110.05224 193.42597,106.20309 193.42597,106.18078 192.46696,105.95002 192.03259,105.8455 191.67718,105.49939 191.67718,105.18093 191.67718,104.49044 191.71923,104.48804 194.57301,105.0154 196.34103,105.34211 196.81077,105.57239 196.81077,106.11238 196.81077,106.64705 196.61005,106.74951 195.889,106.583 195.00276,106.37833 194.92951,106.52855 193.98809,110.48166 193.24713,113.59305 192.84698,114.62189 192.34307,114.71118 191.87072,114.79489 191.68013,114.58381 191.68733,113.98498 z M 176.102,113.64414 C 175.64134,112.4279 175.12137,104.79266 175.47694,104.46548 176.13237,103.86239 180.18503,103.71386 180.40623,104.28483 180.77152,105.22779 181.35929,113.14096 181.08328,113.40003 180.93137,113.54262 179.79132,113.76912 178.54986,113.90337 176.8022,114.09238 176.24964,114.03386 176.102,113.64414 z M 179.619,111.41484 C 179.53,110.76534 179.34933,109.13022 179.21751,107.78126 178.98385,105.3903 178.95002,105.32858 177.87309,105.32858 176.79546,105.32858 176.77239,105.37092 176.93203,107.05454 177.47433,112.77338 177.41927,112.59574 178.6494,112.59574 179.69581,112.59574 179.76865,112.50701 179.619,111.41484 z M 184.27299,113.78314 182.59471,113.64404 182.59471,109.89509 C 182.59471,105.24149 182.86198,103.87515 183.77226,103.87515 184.39374,103.87515 184.43837,104.27321 184.26101,108.23545 L 184.06585,112.59574 185.30473,112.59574 C 186.28034,112.59574 186.54361,112.75017 186.54361,113.32246 186.54361,113.72217 186.41034,114.02062 186.24744,113.98571 186.08456,113.95078 185.19605,113.85964 184.27299,113.78314 z"
             style="fill:#000000"
             id="path5413" />
          <flowRoot
             transform="matrix(1.0155325,0,0,0.9245724,-264.60095,-37.106513)"
             style="font-size:13.30000019px;font-style:normal;font-weight:bold;line-height:125%;letter-spacing:0px;word-spacing:0px;fill:#000000;fill-opacity:1;stroke:none;font-family:Sans;-inkscape-font-specification:Sans Bold"
             id="flowRoot6791"
             xml:space="preserve"><flowRegion
               id="flowRegion6793"><rect
                 style="font-size:13.30000019px;font-weight:bold;-inkscape-font-specification:Sans Bold"
                 y="268.92856"
                 x="398.92856"
                 height="27.5"
                 width="116.07143"
                 id="rect6795" /></flowRegion><flowPara
               id="flowPara6797">MTRAS.COM</flowPara></flowRoot>          <flowRoot
             transform="translate(-42.18875,-60.720874)"
             style="font-size:8px;font-style:normal;font-variant:normal;font-weight:bold;font-stretch:normal;text-align:center;line-height:125%;letter-spacing:0px;word-spacing:0px;writing-mode:lr-tb;text-anchor:middle;fill:#000000;fill-opacity:1;stroke:none;font-family:Sans;-inkscape-font-specification:Sans Bold"
             id="flowRoot3150"
             xml:space="preserve"><flowRegion
               id="flowRegion3152"><rect
                 style="font-size:8px;font-style:normal;font-variant:normal;font-weight:bold;font-stretch:normal;text-align:center;line-height:125%;writing-mode:lr-tb;text-anchor:middle;font-family:Sans;-inkscape-font-specification:Sans Bold"
                 y="412.28915"
                 x="80.812202"
                 height="48.992397"
                 width="176.7767"
                 id="rect3154" /></flowRegion><flowPara
               id="flowPara3039">Vs 1.1</flowPara><flowPara
               id="flowPara3041">01:2015</flowPara></flowRoot>          <flowRoot
             transform="translate(-320.82078,-160.26218)"
             style="font-size:12px;font-style:normal;font-weight:normal;text-align:center;line-height:125%;letter-spacing:0px;word-spacing:0px;text-anchor:middle;fill:#000000;fill-opacity:1;stroke:none;font-family:Sans"
             id="flowRoot3291"
             xml:space="preserve"><flowRegion
               id="flowRegion3293"><rect
                 style="font-size:12px;text-align:center;text-anchor:middle"
                 y="155.71042"
                 x="300.01532"
                 height="100.0051"
                 width="294.96454"
                 id="rect3295" /></flowRegion><flowPara
               id="flowPara3297" /><flowPara
               id="flowPara3299">http://ianlee74.github.io/LumineaterBot/</flowPara><flowPara
               id="flowPara3940">Source             Code</flowPara></flowRoot>        </g>
        <rect
           ry="21.446402"
           style="fill:none;stroke:#c31234;stroke-width:0.49573925;stroke-miterlimit:10;stroke-opacity:1;stroke-dasharray:none"
           id="rect3959-5-2"
           width="240.44914"
           height="389.19009"
           x="7.0492587"
           y="-11.221117" />
      </g>
    </g>
  </g>
</svg>
